<svg width="283" height="152" viewBox="0 0 283 152" fill="none" xmlns="http://www.w3.org/2000/svg">
<rect x="1" y="0.5" width="281" height="151" fill="white"/>
<path d="M157.5 60.4444V35.5556C157.5 33.6 155.9 32 153.944 32H129.056C127.1 32 125.5 33.6 125.5 35.5556V60.4444C125.5 62.4 127.1 64 129.056 64H153.944C155.9 64 157.5 62.4 157.5 60.4444ZM135.278 50.6667L139.722 56.0178L145.944 48L153.944 58.6667H129.056L135.278 50.6667Z" fill="#C8C8C8"/>
<path d="M59.1326 85.06H59.9586L64.0886 95H63.0526L61.7646 91.892H57.2986L56.0246 95H54.9746L59.1326 85.06ZM61.5406 91.122L59.5386 86.208L57.5086 91.122H61.5406ZM68.9576 88.546C68.3136 88.5647 67.7536 88.742 67.2776 89.078C66.8016 89.414 66.4656 89.876 66.2696 90.464V95H65.3176V87.706H66.2136V89.456C66.4842 88.896 66.8482 88.4573 67.3056 88.14C67.7629 87.8227 68.2529 87.664 68.7756 87.664C68.8502 87.664 68.9109 87.6687 68.9576 87.678V88.546ZM73.8658 88.546C73.2218 88.5647 72.6618 88.742 72.1858 89.078C71.7098 89.414 71.3738 89.876 71.1778 90.464V95H70.2258V87.706H71.1218V89.456C71.3924 88.896 71.7564 88.4573 72.2138 88.14C72.6711 87.8227 73.1611 87.664 73.6838 87.664C73.7584 87.664 73.8191 87.6687 73.8658 87.678V88.546ZM76.8723 95.14C76.5269 95.14 76.2049 95.084 75.9063 94.972C75.6169 94.8507 75.3603 94.6873 75.1363 94.482C74.9216 94.2767 74.7536 94.0387 74.6323 93.768C74.5109 93.488 74.4503 93.1893 74.4503 92.872C74.4503 92.5547 74.5249 92.2607 74.6743 91.99C74.8236 91.7193 75.0336 91.486 75.3043 91.29C75.5749 91.094 75.8969 90.9447 76.2703 90.842C76.6436 90.73 77.0543 90.674 77.5023 90.674C77.8756 90.674 78.2536 90.7067 78.6363 90.772C79.0189 90.8373 79.3596 90.9307 79.6583 91.052V90.394C79.6583 89.75 79.4763 89.2413 79.1123 88.868C78.7483 88.4853 78.2443 88.294 77.6003 88.294C77.2269 88.294 76.8443 88.3687 76.4523 88.518C76.0603 88.6673 75.6636 88.882 75.2623 89.162L74.9263 88.532C75.8689 87.8973 76.7836 87.58 77.6703 87.58C78.5849 87.58 79.3036 87.8367 79.8263 88.35C80.3489 88.8633 80.6103 89.5727 80.6103 90.478V93.768C80.6103 94.0293 80.7269 94.16 80.9603 94.16V95C80.8016 95.028 80.6803 95.042 80.5963 95.042C80.3536 95.042 80.1623 94.9813 80.0223 94.86C79.8916 94.7387 79.8216 94.5707 79.8123 94.356L79.7843 93.782C79.4483 94.2207 79.0236 94.5567 78.5103 94.79C78.0063 95.0233 77.4603 95.14 76.8723 95.14ZM77.0963 94.412C77.5909 94.412 78.0436 94.3187 78.4543 94.132C78.8743 93.9453 79.1916 93.698 79.4063 93.39C79.4903 93.306 79.5509 93.2173 79.5883 93.124C79.6349 93.0213 79.6583 92.928 79.6583 92.844V91.654C79.3409 91.5327 79.0096 91.4393 78.6643 91.374C78.3283 91.3087 77.9829 91.276 77.6283 91.276C76.9563 91.276 76.4103 91.416 75.9903 91.696C75.5703 91.976 75.3603 92.3447 75.3603 92.802C75.3603 93.026 75.4023 93.236 75.4863 93.432C75.5796 93.628 75.7009 93.8007 75.8503 93.95C76.0089 94.09 76.1956 94.202 76.4103 94.286C76.6249 94.37 76.8536 94.412 77.0963 94.412ZM85.0892 95.14C84.5199 95.14 83.9645 95.0467 83.4232 94.86C82.8819 94.6733 82.4152 94.4027 82.0232 94.048L82.4572 93.404C82.8679 93.74 83.2832 93.992 83.7032 94.16C84.1325 94.328 84.5899 94.412 85.0752 94.412C85.6632 94.412 86.1299 94.2953 86.4752 94.062C86.8299 93.8193 87.0072 93.4787 87.0072 93.04C87.0072 92.8347 86.9605 92.6667 86.8672 92.536C86.7739 92.396 86.6339 92.2747 86.4472 92.172C86.2699 92.0693 86.0412 91.9807 85.7612 91.906C85.4905 91.822 85.1732 91.738 84.8092 91.654C84.3892 91.5513 84.0252 91.4487 83.7172 91.346C83.4092 91.2433 83.1525 91.1267 82.9472 90.996C82.7512 90.8653 82.6019 90.7067 82.4992 90.52C82.4059 90.324 82.3592 90.0813 82.3592 89.792C82.3592 89.428 82.4292 89.106 82.5692 88.826C82.7185 88.546 82.9145 88.3173 83.1572 88.14C83.4092 87.9533 83.6985 87.8133 84.0252 87.72C84.3612 87.6267 84.7159 87.58 85.0892 87.58C85.6492 87.58 86.1579 87.6733 86.6152 87.86C87.0725 88.0373 87.4412 88.2753 87.7212 88.574L87.2592 89.134C86.9885 88.854 86.6572 88.644 86.2652 88.504C85.8825 88.364 85.4812 88.294 85.0612 88.294C84.8092 88.294 84.5759 88.322 84.3612 88.378C84.1465 88.4247 83.9552 88.504 83.7872 88.616C83.6285 88.728 83.5025 88.8727 83.4092 89.05C83.3159 89.218 83.2692 89.4187 83.2692 89.652C83.2692 89.848 83.3019 90.0067 83.3672 90.128C83.4325 90.2493 83.5399 90.3567 83.6892 90.45C83.8385 90.534 84.0252 90.6133 84.2492 90.688C84.4825 90.7533 84.7625 90.8233 85.0892 90.898C85.5559 91.01 85.9665 91.122 86.3212 91.234C86.6759 91.346 86.9699 91.4767 87.2032 91.626C87.4459 91.7753 87.6279 91.9573 87.7492 92.172C87.8705 92.3867 87.9312 92.648 87.9312 92.956C87.9312 93.628 87.6745 94.16 87.1612 94.552C86.6479 94.944 85.9572 95.14 85.0892 95.14ZM92.9895 94.65C92.9335 94.678 92.8495 94.7153 92.7375 94.762C92.6348 94.8087 92.5135 94.8553 92.3735 94.902C92.2335 94.9487 92.0748 94.9907 91.8975 95.028C91.7201 95.0653 91.5335 95.084 91.3375 95.084C91.1321 95.084 90.9361 95.056 90.7495 95C90.5628 94.944 90.3995 94.86 90.2595 94.748C90.1195 94.6267 90.0075 94.4773 89.9235 94.3C89.8395 94.1227 89.7975 93.9173 89.7975 93.684V88.462H88.7895V87.706H89.7975V85.242H90.7495V87.706H92.4295V88.462H90.7495V93.418C90.7681 93.6887 90.8615 93.8893 91.0295 94.02C91.2068 94.1413 91.4075 94.202 91.6315 94.202C91.9021 94.202 92.1401 94.16 92.3455 94.076C92.5508 93.9827 92.6815 93.9173 92.7375 93.88L92.9895 94.65ZM97.1512 95.14C96.6192 95.14 96.1292 95.042 95.6812 94.846C95.2425 94.6407 94.8598 94.3653 94.5332 94.02C94.2065 93.6653 93.9498 93.2593 93.7632 92.802C93.5858 92.3447 93.4972 91.8547 93.4972 91.332C93.4972 90.8187 93.5858 90.338 93.7632 89.89C93.9498 89.4327 94.2018 89.036 94.5192 88.7C94.8458 88.3547 95.2332 88.084 95.6812 87.888C96.1292 87.6827 96.6145 87.58 97.1372 87.58C97.6692 87.58 98.1545 87.6827 98.5932 87.888C99.0412 88.084 99.4238 88.3547 99.7412 88.7C100.059 89.0453 100.306 89.442 100.483 89.89C100.661 90.338 100.749 90.814 100.749 91.318C100.749 91.3927 100.749 91.4673 100.749 91.542C100.749 91.6167 100.745 91.668 100.735 91.696H94.4912C94.5192 92.088 94.6078 92.452 94.7572 92.788C94.9158 93.1147 95.1165 93.3993 95.3592 93.642C95.6018 93.8847 95.8772 94.076 96.1852 94.216C96.5025 94.3467 96.8385 94.412 97.1932 94.412C97.4265 94.412 97.6598 94.3793 97.8932 94.314C98.1265 94.2487 98.3412 94.16 98.5372 94.048C98.7332 93.936 98.9105 93.8007 99.0692 93.642C99.2278 93.474 99.3492 93.292 99.4332 93.096L100.259 93.32C100.147 93.5907 99.9885 93.838 99.7832 94.062C99.5778 94.2767 99.3398 94.468 99.0692 94.636C98.7985 94.7947 98.4998 94.916 98.1732 95C97.8465 95.0933 97.5058 95.14 97.1512 95.14ZM99.8392 90.968C99.8112 90.576 99.7178 90.2213 99.5592 89.904C99.4098 89.5773 99.2138 89.2973 98.9712 89.064C98.7378 88.8307 98.4625 88.6487 98.1452 88.518C97.8372 88.3873 97.5058 88.322 97.1512 88.322C96.7965 88.322 96.4605 88.3873 96.1432 88.518C95.8258 88.6487 95.5458 88.8307 95.3032 89.064C95.0698 89.2973 94.8785 89.5773 94.7292 89.904C94.5892 90.2307 94.5052 90.5853 94.4772 90.968H99.8392ZM109.51 95.14C108.894 95.14 108.348 94.986 107.872 94.678C107.406 94.3607 107.028 93.964 106.738 93.488V97.982H105.786V87.706H106.64V89.12C106.939 88.6627 107.326 88.294 107.802 88.014C108.278 87.7247 108.796 87.58 109.356 87.58C109.86 87.58 110.322 87.6873 110.742 87.902C111.162 88.1073 111.526 88.3873 111.834 88.742C112.142 89.0873 112.38 89.4887 112.548 89.946C112.726 90.4033 112.814 90.8747 112.814 91.36C112.814 91.8733 112.735 92.3587 112.576 92.816C112.418 93.2733 112.189 93.6747 111.89 94.02C111.601 94.3653 111.251 94.6407 110.84 94.846C110.439 95.042 109.996 95.14 109.51 95.14ZM109.244 94.3C109.636 94.3 109.991 94.216 110.308 94.048C110.635 93.88 110.91 93.6607 111.134 93.39C111.368 93.11 111.545 92.7973 111.666 92.452C111.788 92.0973 111.848 91.7333 111.848 91.36C111.848 90.968 111.778 90.5947 111.638 90.24C111.498 89.8853 111.307 89.5727 111.064 89.302C110.822 89.0313 110.532 88.8167 110.196 88.658C109.87 88.4993 109.515 88.42 109.132 88.42C108.89 88.42 108.633 88.4713 108.362 88.574C108.101 88.6673 107.854 88.798 107.62 88.966C107.396 89.1247 107.2 89.316 107.032 89.54C106.874 89.7547 106.776 89.9833 106.738 90.226V92.466C106.85 92.7273 106.99 92.97 107.158 93.194C107.336 93.418 107.532 93.614 107.746 93.782C107.97 93.9407 108.208 94.0667 108.46 94.16C108.712 94.2533 108.974 94.3 109.244 94.3ZM116.261 95.14C115.916 95.14 115.594 95.084 115.295 94.972C115.006 94.8507 114.749 94.6873 114.525 94.482C114.31 94.2767 114.142 94.0387 114.021 93.768C113.9 93.488 113.839 93.1893 113.839 92.872C113.839 92.5547 113.914 92.2607 114.063 91.99C114.212 91.7193 114.422 91.486 114.693 91.29C114.964 91.094 115.286 90.9447 115.659 90.842C116.032 90.73 116.443 90.674 116.891 90.674C117.264 90.674 117.642 90.7067 118.025 90.772C118.408 90.8373 118.748 90.9307 119.047 91.052V90.394C119.047 89.75 118.865 89.2413 118.501 88.868C118.137 88.4853 117.633 88.294 116.989 88.294C116.616 88.294 116.233 88.3687 115.841 88.518C115.449 88.6673 115.052 88.882 114.651 89.162L114.315 88.532C115.258 87.8973 116.172 87.58 117.059 87.58C117.974 87.58 118.692 87.8367 119.215 88.35C119.738 88.8633 119.999 89.5727 119.999 90.478V93.768C119.999 94.0293 120.116 94.16 120.349 94.16V95C120.19 95.028 120.069 95.042 119.985 95.042C119.742 95.042 119.551 94.9813 119.411 94.86C119.28 94.7387 119.21 94.5707 119.201 94.356L119.173 93.782C118.837 94.2207 118.412 94.5567 117.899 94.79C117.395 95.0233 116.849 95.14 116.261 95.14ZM116.485 94.412C116.98 94.412 117.432 94.3187 117.843 94.132C118.263 93.9453 118.58 93.698 118.795 93.39C118.879 93.306 118.94 93.2173 118.977 93.124C119.024 93.0213 119.047 92.928 119.047 92.844V91.654C118.73 91.5327 118.398 91.4393 118.053 91.374C117.717 91.3087 117.372 91.276 117.017 91.276C116.345 91.276 115.799 91.416 115.379 91.696C114.959 91.976 114.749 92.3447 114.749 92.802C114.749 93.026 114.791 93.236 114.875 93.432C114.968 93.628 115.09 93.8007 115.239 93.95C115.398 94.09 115.584 94.202 115.799 94.286C116.014 94.37 116.242 94.412 116.485 94.412ZM125.696 88.546C125.052 88.5647 124.492 88.742 124.016 89.078C123.54 89.414 123.204 89.876 123.008 90.464V95H122.056V87.706H122.952V89.456C123.223 88.896 123.587 88.4573 124.044 88.14C124.501 87.8227 124.991 87.664 125.514 87.664C125.589 87.664 125.649 87.6687 125.696 87.678V88.546ZM128.702 95.14C128.357 95.14 128.035 95.084 127.736 94.972C127.447 94.8507 127.19 94.6873 126.966 94.482C126.752 94.2767 126.584 94.0387 126.462 93.768C126.341 93.488 126.28 93.1893 126.28 92.872C126.28 92.5547 126.355 92.2607 126.504 91.99C126.654 91.7193 126.864 91.486 127.134 91.29C127.405 91.094 127.727 90.9447 128.1 90.842C128.474 90.73 128.884 90.674 129.332 90.674C129.706 90.674 130.084 90.7067 130.466 90.772C130.849 90.8373 131.19 90.9307 131.488 91.052V90.394C131.488 89.75 131.306 89.2413 130.942 88.868C130.578 88.4853 130.074 88.294 129.43 88.294C129.057 88.294 128.674 88.3687 128.282 88.518C127.89 88.6673 127.494 88.882 127.092 89.162L126.756 88.532C127.699 87.8973 128.614 87.58 129.5 87.58C130.415 87.58 131.134 87.8367 131.656 88.35C132.179 88.8633 132.44 89.5727 132.44 90.478V93.768C132.44 94.0293 132.557 94.16 132.79 94.16V95C132.632 95.028 132.51 95.042 132.426 95.042C132.184 95.042 131.992 94.9813 131.852 94.86C131.722 94.7387 131.652 94.5707 131.642 94.356L131.614 93.782C131.278 94.2207 130.854 94.5567 130.34 94.79C129.836 95.0233 129.29 95.14 128.702 95.14ZM128.926 94.412C129.421 94.412 129.874 94.3187 130.284 94.132C130.704 93.9453 131.022 93.698 131.236 93.39C131.32 93.306 131.381 93.2173 131.418 93.124C131.465 93.0213 131.488 92.928 131.488 92.844V91.654C131.171 91.5327 130.84 91.4393 130.494 91.374C130.158 91.3087 129.813 91.276 129.458 91.276C128.786 91.276 128.24 91.416 127.82 91.696C127.4 91.976 127.19 92.3447 127.19 92.802C127.19 93.026 127.232 93.236 127.316 93.432C127.41 93.628 127.531 93.8007 127.68 93.95C127.839 94.09 128.026 94.202 128.24 94.286C128.455 94.37 128.684 94.412 128.926 94.412ZM139.9 95.14C139.554 95.14 139.232 95.084 138.934 94.972C138.644 94.8507 138.388 94.6873 138.164 94.482C137.949 94.2767 137.781 94.0387 137.66 93.768C137.538 93.488 137.478 93.1893 137.478 92.872C137.478 92.5547 137.552 92.2607 137.702 91.99C137.851 91.7193 138.061 91.486 138.332 91.29C138.602 91.094 138.924 90.9447 139.298 90.842C139.671 90.73 140.082 90.674 140.53 90.674C140.903 90.674 141.281 90.7067 141.664 90.772C142.046 90.8373 142.387 90.9307 142.686 91.052V90.394C142.686 89.75 142.504 89.2413 142.14 88.868C141.776 88.4853 141.272 88.294 140.628 88.294C140.254 88.294 139.872 88.3687 139.48 88.518C139.088 88.6673 138.691 88.882 138.29 89.162L137.954 88.532C138.896 87.8973 139.811 87.58 140.698 87.58C141.612 87.58 142.331 87.8367 142.854 88.35C143.376 88.8633 143.638 89.5727 143.638 90.478V93.768C143.638 94.0293 143.754 94.16 143.988 94.16V95C143.829 95.028 143.708 95.042 143.624 95.042C143.381 95.042 143.19 94.9813 143.05 94.86C142.919 94.7387 142.849 94.5707 142.84 94.356L142.812 93.782C142.476 94.2207 142.051 94.5567 141.538 94.79C141.034 95.0233 140.488 95.14 139.9 95.14ZM140.124 94.412C140.618 94.412 141.071 94.3187 141.482 94.132C141.902 93.9453 142.219 93.698 142.434 93.39C142.518 93.306 142.578 93.2173 142.616 93.124C142.662 93.0213 142.686 92.928 142.686 92.844V91.654C142.368 91.5327 142.037 91.4393 141.692 91.374C141.356 91.3087 141.01 91.276 140.656 91.276C139.984 91.276 139.438 91.416 139.018 91.696C138.598 91.976 138.388 92.3447 138.388 92.802C138.388 93.026 138.43 93.236 138.514 93.432C138.607 93.628 138.728 93.8007 138.878 93.95C139.036 94.09 139.223 94.202 139.438 94.286C139.652 94.37 139.881 94.412 140.124 94.412ZM148.691 95.14C148.187 95.14 147.72 95.0373 147.291 94.832C146.861 94.6173 146.493 94.3373 146.185 93.992C145.877 93.6467 145.634 93.25 145.457 92.802C145.289 92.3447 145.205 91.8687 145.205 91.374C145.205 90.8607 145.289 90.3753 145.457 89.918C145.625 89.4513 145.853 89.0453 146.143 88.7C146.441 88.3547 146.791 88.084 147.193 87.888C147.603 87.6827 148.051 87.58 148.537 87.58C149.153 87.58 149.699 87.7433 150.175 88.07C150.651 88.3873 151.024 88.7747 151.295 89.232V84.78H152.247V93.768C152.247 94.0293 152.359 94.16 152.583 94.16V95C152.443 95.028 152.331 95.042 152.247 95.042C152.023 95.042 151.827 94.972 151.659 94.832C151.491 94.6827 151.407 94.5053 151.407 94.3V93.586C151.117 94.062 150.725 94.44 150.231 94.72C149.736 95 149.223 95.14 148.691 95.14ZM148.901 94.3C149.134 94.3 149.381 94.2533 149.643 94.16C149.913 94.0667 150.165 93.9407 150.399 93.782C150.632 93.614 150.828 93.4227 150.987 93.208C151.155 92.984 151.257 92.746 151.295 92.494V90.24C151.201 89.988 151.066 89.7547 150.889 89.54C150.711 89.316 150.506 89.12 150.273 88.952C150.049 88.784 149.806 88.6533 149.545 88.56C149.283 88.4667 149.027 88.42 148.775 88.42C148.383 88.42 148.028 88.504 147.711 88.672C147.393 88.84 147.118 89.064 146.885 89.344C146.661 89.6147 146.488 89.9273 146.367 90.282C146.245 90.6367 146.185 91.0007 146.185 91.374C146.185 91.766 146.255 92.1393 146.395 92.494C146.535 92.8487 146.726 93.1613 146.969 93.432C147.211 93.6933 147.496 93.9033 147.823 94.062C148.159 94.2207 148.518 94.3 148.901 94.3ZM154.404 95V87.706H155.356V95H154.404ZM154.404 86.18V84.78H155.356V86.18H154.404ZM156.948 91.332C156.948 90.8187 157.037 90.3333 157.214 89.876C157.392 89.4187 157.639 89.022 157.956 88.686C158.283 88.3407 158.67 88.07 159.118 87.874C159.566 87.678 160.061 87.58 160.602 87.58C161.293 87.58 161.895 87.7387 162.408 88.056C162.922 88.364 163.309 88.784 163.57 89.316L162.646 89.61C162.441 89.2367 162.152 88.9473 161.778 88.742C161.414 88.5273 161.008 88.42 160.56 88.42C160.187 88.42 159.837 88.4947 159.51 88.644C159.193 88.7933 158.913 88.9987 158.67 89.26C158.437 89.512 158.25 89.8153 158.11 90.17C157.98 90.5247 157.914 90.912 157.914 91.332C157.914 91.7427 157.984 92.13 158.124 92.494C158.264 92.858 158.456 93.1753 158.698 93.446C158.941 93.7073 159.221 93.9173 159.538 94.076C159.865 94.2253 160.21 94.3 160.574 94.3C160.808 94.3 161.036 94.2673 161.26 94.202C161.494 94.1367 161.708 94.048 161.904 93.936C162.1 93.8147 162.268 93.6793 162.408 93.53C162.548 93.3807 162.646 93.222 162.702 93.054L163.64 93.334C163.538 93.5953 163.388 93.838 163.192 94.062C162.996 94.2767 162.763 94.468 162.492 94.636C162.231 94.7947 161.937 94.916 161.61 95C161.293 95.0933 160.962 95.14 160.616 95.14C160.084 95.14 159.594 95.042 159.146 94.846C158.698 94.6407 158.311 94.3653 157.984 94.02C157.658 93.6653 157.401 93.2593 157.214 92.802C157.037 92.3447 156.948 91.8547 156.948 91.332ZM165.136 95V87.706H166.088V95H165.136ZM165.136 86.18V84.78H166.088V86.18H165.136ZM171.293 95.14C170.761 95.14 170.275 95.042 169.837 94.846C169.398 94.6407 169.015 94.3653 168.689 94.02C168.371 93.6747 168.124 93.2733 167.947 92.816C167.769 92.3587 167.681 91.878 167.681 91.374C167.681 90.8607 167.769 90.3753 167.947 89.918C168.133 89.4607 168.385 89.0593 168.703 88.714C169.029 88.3687 169.412 88.0933 169.851 87.888C170.289 87.6827 170.77 87.58 171.293 87.58C171.815 87.58 172.296 87.6827 172.735 87.888C173.183 88.0933 173.565 88.3687 173.883 88.714C174.209 89.0593 174.461 89.4607 174.639 89.918C174.825 90.3753 174.919 90.8607 174.919 91.374C174.919 91.878 174.83 92.3587 174.653 92.816C174.475 93.2733 174.223 93.6747 173.897 94.02C173.579 94.3653 173.197 94.6407 172.749 94.846C172.31 95.042 171.825 95.14 171.293 95.14ZM168.647 91.388C168.647 91.7987 168.717 92.1813 168.857 92.536C168.997 92.8813 169.183 93.1893 169.417 93.46C169.659 93.7213 169.939 93.9267 170.257 94.076C170.583 94.2253 170.929 94.3 171.293 94.3C171.657 94.3 171.997 94.2253 172.315 94.076C172.641 93.9173 172.926 93.7073 173.169 93.446C173.411 93.1753 173.603 92.8627 173.743 92.508C173.883 92.1533 173.953 91.7707 173.953 91.36C173.953 90.9587 173.883 90.5807 173.743 90.226C173.603 89.862 173.411 89.5493 173.169 89.288C172.926 89.0173 172.641 88.8073 172.315 88.658C171.997 88.4993 171.657 88.42 171.293 88.42C170.929 88.42 170.588 88.4993 170.271 88.658C169.953 88.8073 169.673 89.0173 169.431 89.288C169.188 89.5587 168.997 89.876 168.857 90.24C168.717 90.5947 168.647 90.9773 168.647 91.388ZM182.643 95H181.691V90.926C181.691 90.058 181.56 89.428 181.299 89.036C181.047 88.644 180.655 88.448 180.123 88.448C179.843 88.448 179.563 88.4993 179.283 88.602C179.003 88.7047 178.742 88.8493 178.499 89.036C178.266 89.2227 178.056 89.4467 177.869 89.708C177.682 89.96 177.547 90.2353 177.463 90.534V95H176.511V87.706H177.379V89.358C177.678 88.826 178.102 88.3967 178.653 88.07C179.213 87.7433 179.82 87.58 180.473 87.58C180.874 87.58 181.215 87.6547 181.495 87.804C181.775 87.9533 181.999 88.1633 182.167 88.434C182.335 88.7047 182.456 89.036 182.531 89.428C182.606 89.82 182.643 90.254 182.643 90.73V95ZM186.507 95.14C186.162 95.14 185.84 95.084 185.541 94.972C185.252 94.8507 184.995 94.6873 184.771 94.482C184.556 94.2767 184.388 94.0387 184.267 93.768C184.146 93.488 184.085 93.1893 184.085 92.872C184.085 92.5547 184.16 92.2607 184.309 91.99C184.458 91.7193 184.668 91.486 184.939 91.29C185.21 91.094 185.532 90.9447 185.905 90.842C186.278 90.73 186.689 90.674 187.137 90.674C187.51 90.674 187.888 90.7067 188.271 90.772C188.654 90.8373 188.994 90.9307 189.293 91.052V90.394C189.293 89.75 189.111 89.2413 188.747 88.868C188.383 88.4853 187.879 88.294 187.235 88.294C186.862 88.294 186.479 88.3687 186.087 88.518C185.695 88.6673 185.298 88.882 184.897 89.162L184.561 88.532C185.504 87.8973 186.418 87.58 187.305 87.58C188.22 87.58 188.938 87.8367 189.461 88.35C189.984 88.8633 190.245 89.5727 190.245 90.478V93.768C190.245 94.0293 190.362 94.16 190.595 94.16V95C190.436 95.028 190.315 95.042 190.231 95.042C189.988 95.042 189.797 94.9813 189.657 94.86C189.526 94.7387 189.456 94.5707 189.447 94.356L189.419 93.782C189.083 94.2207 188.658 94.5567 188.145 94.79C187.641 95.0233 187.095 95.14 186.507 95.14ZM186.731 94.412C187.226 94.412 187.678 94.3187 188.089 94.132C188.509 93.9453 188.826 93.698 189.041 93.39C189.125 93.306 189.186 93.2173 189.223 93.124C189.27 93.0213 189.293 92.928 189.293 92.844V91.654C188.976 91.5327 188.644 91.4393 188.299 91.374C187.963 91.3087 187.618 91.276 187.263 91.276C186.591 91.276 186.045 91.416 185.625 91.696C185.205 91.976 184.995 92.3447 184.995 92.802C184.995 93.026 185.037 93.236 185.121 93.432C185.214 93.628 185.336 93.8007 185.485 93.95C185.644 94.09 185.83 94.202 186.045 94.286C186.26 94.37 186.488 94.412 186.731 94.412ZM195.942 88.546C195.298 88.5647 194.738 88.742 194.262 89.078C193.786 89.414 193.45 89.876 193.254 90.464V95H192.302V87.706H193.198V89.456C193.469 88.896 193.833 88.4573 194.29 88.14C194.747 87.8227 195.237 87.664 195.76 87.664C195.835 87.664 195.895 87.6687 195.942 87.678V88.546ZM202.719 95.14C201.925 95.14 201.333 94.8787 200.941 94.356C200.558 93.824 200.367 93.0353 200.367 91.99V87.706H201.319V91.822C201.319 93.474 201.883 94.3 203.013 94.3C203.293 94.3 203.568 94.2533 203.839 94.16C204.109 94.0667 204.357 93.9313 204.581 93.754C204.814 93.5767 205.019 93.3667 205.197 93.124C205.383 92.8813 205.533 92.606 205.645 92.298V87.706H206.597V93.768C206.597 94.0293 206.709 94.16 206.933 94.16V95C206.821 95.0187 206.727 95.028 206.653 95.028C206.587 95.028 206.541 95.028 206.513 95.028C206.289 95.0187 206.107 94.9393 205.967 94.79C205.827 94.6407 205.757 94.44 205.757 94.188V93.348C205.439 93.9173 205.005 94.3607 204.455 94.678C203.913 94.986 203.335 95.14 202.719 95.14ZM219.599 95H218.647V90.926C218.647 90.0767 218.512 89.4513 218.241 89.05C217.971 88.6487 217.569 88.448 217.037 88.448C216.757 88.448 216.491 88.4993 216.239 88.602C215.997 88.7047 215.768 88.8493 215.553 89.036C215.348 89.2227 215.166 89.4467 215.007 89.708C214.849 89.96 214.727 90.24 214.643 90.548V95H213.691V90.926C213.691 90.058 213.561 89.428 213.299 89.036C213.038 88.644 212.637 88.448 212.095 88.448C211.545 88.448 211.055 88.6393 210.625 89.022C210.196 89.4047 209.888 89.9087 209.701 90.534V95H208.749V87.706H209.617V89.358C209.916 88.798 210.308 88.364 210.793 88.056C211.279 87.7387 211.815 87.58 212.403 87.58C213.019 87.58 213.509 87.7527 213.873 88.098C214.247 88.4433 214.475 88.896 214.559 89.456C215.241 88.2053 216.179 87.58 217.373 87.58C217.784 87.58 218.129 87.6547 218.409 87.804C218.699 87.9533 218.927 88.168 219.095 88.448C219.273 88.7187 219.399 89.05 219.473 89.442C219.557 89.8247 219.599 90.254 219.599 90.73V95ZM223.448 95.14C223.103 95.14 222.781 95.084 222.482 94.972C222.193 94.8507 221.936 94.6873 221.712 94.482C221.498 94.2767 221.33 94.0387 221.208 93.768C221.087 93.488 221.026 93.1893 221.026 92.872C221.026 92.5547 221.101 92.2607 221.25 91.99C221.4 91.7193 221.61 91.486 221.88 91.29C222.151 91.094 222.473 90.9447 222.846 90.842C223.22 90.73 223.63 90.674 224.078 90.674C224.452 90.674 224.83 90.7067 225.212 90.772C225.595 90.8373 225.936 90.9307 226.234 91.052V90.394C226.234 89.75 226.052 89.2413 225.688 88.868C225.324 88.4853 224.82 88.294 224.176 88.294C223.803 88.294 223.42 88.3687 223.028 88.518C222.636 88.6673 222.24 88.882 221.838 89.162L221.502 88.532C222.445 87.8973 223.36 87.58 224.246 87.58C225.161 87.58 225.88 87.8367 226.402 88.35C226.925 88.8633 227.186 89.5727 227.186 90.478V93.768C227.186 94.0293 227.303 94.16 227.536 94.16V95C227.378 95.028 227.256 95.042 227.172 95.042C226.93 95.042 226.738 94.9813 226.598 94.86C226.468 94.7387 226.398 94.5707 226.388 94.356L226.36 93.782C226.024 94.2207 225.6 94.5567 225.086 94.79C224.582 95.0233 224.036 95.14 223.448 95.14ZM223.672 94.412C224.167 94.412 224.62 94.3187 225.03 94.132C225.45 93.9453 225.768 93.698 225.982 93.39C226.066 93.306 226.127 93.2173 226.164 93.124C226.211 93.0213 226.234 92.928 226.234 92.844V91.654C225.917 91.5327 225.586 91.4393 225.24 91.374C224.904 91.3087 224.559 91.276 224.204 91.276C223.532 91.276 222.986 91.416 222.566 91.696C222.146 91.976 221.936 92.3447 221.936 92.802C221.936 93.026 221.978 93.236 222.062 93.432C222.156 93.628 222.277 93.8007 222.426 93.95C222.585 94.09 222.772 94.202 222.986 94.286C223.201 94.37 223.43 94.412 223.672 94.412ZM66.3566 115V107.706H67.3086V115H66.3566ZM66.3566 106.18V104.78H67.3086V106.18H66.3566ZM80.2555 115H79.3035V110.926C79.3035 110.077 79.1681 109.451 78.8975 109.05C78.6268 108.649 78.2255 108.448 77.6935 108.448C77.4135 108.448 77.1475 108.499 76.8955 108.602C76.6528 108.705 76.4241 108.849 76.2095 109.036C76.0041 109.223 75.8221 109.447 75.6635 109.708C75.5048 109.96 75.3835 110.24 75.2995 110.548V115H74.3475V110.926C74.3475 110.058 74.2168 109.428 73.9555 109.036C73.6941 108.644 73.2928 108.448 72.7515 108.448C72.2008 108.448 71.7108 108.639 71.2815 109.022C70.8521 109.405 70.5441 109.909 70.3575 110.534V115H69.4055V107.706H70.2735V109.358C70.5721 108.798 70.9641 108.364 71.4495 108.056C71.9348 107.739 72.4715 107.58 73.0595 107.58C73.6755 107.58 74.1655 107.753 74.5295 108.098C74.9028 108.443 75.1315 108.896 75.2155 109.456C75.8968 108.205 76.8348 107.58 78.0295 107.58C78.4401 107.58 78.7855 107.655 79.0655 107.804C79.3548 107.953 79.5835 108.168 79.7515 108.448C79.9288 108.719 80.0548 109.05 80.1295 109.442C80.2135 109.825 80.2555 110.254 80.2555 110.73V115ZM84.1047 115.14C83.7594 115.14 83.4374 115.084 83.1387 114.972C82.8494 114.851 82.5927 114.687 82.3687 114.482C82.154 114.277 81.986 114.039 81.8647 113.768C81.7434 113.488 81.6827 113.189 81.6827 112.872C81.6827 112.555 81.7574 112.261 81.9067 111.99C82.056 111.719 82.266 111.486 82.5367 111.29C82.8074 111.094 83.1294 110.945 83.5027 110.842C83.876 110.73 84.2867 110.674 84.7347 110.674C85.108 110.674 85.486 110.707 85.8687 110.772C86.2514 110.837 86.592 110.931 86.8907 111.052V110.394C86.8907 109.75 86.7087 109.241 86.3447 108.868C85.9807 108.485 85.4767 108.294 84.8327 108.294C84.4594 108.294 84.0767 108.369 83.6847 108.518C83.2927 108.667 82.896 108.882 82.4947 109.162L82.1587 108.532C83.1014 107.897 84.016 107.58 84.9027 107.58C85.8174 107.58 86.536 107.837 87.0587 108.35C87.5814 108.863 87.8427 109.573 87.8427 110.478V113.768C87.8427 114.029 87.9594 114.16 88.1927 114.16V115C88.034 115.028 87.9127 115.042 87.8287 115.042C87.586 115.042 87.3947 114.981 87.2547 114.86C87.124 114.739 87.054 114.571 87.0447 114.356L87.0167 113.782C86.6807 114.221 86.256 114.557 85.7427 114.79C85.2387 115.023 84.6927 115.14 84.1047 115.14ZM84.3287 114.412C84.8234 114.412 85.276 114.319 85.6867 114.132C86.1067 113.945 86.424 113.698 86.6387 113.39C86.7227 113.306 86.7834 113.217 86.8207 113.124C86.8674 113.021 86.8907 112.928 86.8907 112.844V111.654C86.5734 111.533 86.242 111.439 85.8967 111.374C85.5607 111.309 85.2154 111.276 84.8607 111.276C84.1887 111.276 83.6427 111.416 83.2227 111.696C82.8027 111.976 82.5927 112.345 82.5927 112.802C82.5927 113.026 82.6347 113.236 82.7187 113.432C82.812 113.628 82.9334 113.801 83.0827 113.95C83.2414 114.09 83.428 114.202 83.6427 114.286C83.8574 114.37 84.086 114.412 84.3287 114.412ZM92.8256 115.098C92.3216 115.098 91.8596 114.995 91.4396 114.79C91.0289 114.575 90.6696 114.295 90.3616 113.95C90.0629 113.605 89.8296 113.208 89.6616 112.76C89.4936 112.312 89.4096 111.85 89.4096 111.374C89.4096 110.87 89.4889 110.389 89.6476 109.932C89.8156 109.465 90.0489 109.059 90.3476 108.714C90.6463 108.369 91.0009 108.093 91.4116 107.888C91.8316 107.683 92.2936 107.58 92.7976 107.58C93.4229 107.58 93.9643 107.739 94.4216 108.056C94.8789 108.364 95.2709 108.756 95.5976 109.232V107.706H96.4516V115.028C96.4516 115.532 96.3536 115.975 96.1576 116.358C95.9709 116.75 95.7143 117.077 95.3876 117.338C95.0703 117.599 94.6923 117.795 94.2536 117.926C93.8243 118.057 93.3669 118.122 92.8816 118.122C92.0416 118.122 91.3649 117.973 90.8516 117.674C90.3383 117.375 89.9229 116.974 89.6056 116.47L90.1936 116.008C90.4829 116.475 90.8656 116.815 91.3416 117.03C91.8176 117.254 92.3309 117.366 92.8816 117.366C93.2363 117.366 93.5723 117.315 93.8896 117.212C94.2069 117.119 94.4823 116.974 94.7156 116.778C94.9583 116.591 95.1496 116.349 95.2896 116.05C95.4296 115.761 95.4996 115.42 95.4996 115.028V113.586C95.2196 114.053 94.8369 114.421 94.3516 114.692C93.8663 114.963 93.3576 115.098 92.8256 115.098ZM93.0916 114.3C93.3716 114.3 93.6469 114.249 93.9176 114.146C94.1883 114.043 94.4309 113.908 94.6456 113.74C94.8696 113.563 95.0563 113.367 95.2056 113.152C95.3549 112.937 95.4529 112.718 95.4996 112.494V110.24C95.3969 109.979 95.2569 109.736 95.0796 109.512C94.9023 109.288 94.7016 109.097 94.4776 108.938C94.2536 108.779 94.0109 108.653 93.7496 108.56C93.4976 108.467 93.2409 108.42 92.9796 108.42C92.5689 108.42 92.2003 108.509 91.8736 108.686C91.5563 108.854 91.2856 109.078 91.0616 109.358C90.8376 109.638 90.6649 109.955 90.5436 110.31C90.4316 110.665 90.3756 111.024 90.3756 111.388C90.3756 111.78 90.4456 112.153 90.5856 112.508C90.7256 112.863 90.9169 113.175 91.1596 113.446C91.4116 113.707 91.7009 113.917 92.0276 114.076C92.3543 114.225 92.7089 114.3 93.0916 114.3ZM101.704 115.14C101.172 115.14 100.682 115.042 100.234 114.846C99.7952 114.641 99.4126 114.365 99.0859 114.02C98.7592 113.665 98.5026 113.259 98.3159 112.802C98.1386 112.345 98.0499 111.855 98.0499 111.332C98.0499 110.819 98.1386 110.338 98.3159 109.89C98.5026 109.433 98.7546 109.036 99.0719 108.7C99.3986 108.355 99.7859 108.084 100.234 107.888C100.682 107.683 101.167 107.58 101.69 107.58C102.222 107.58 102.707 107.683 103.146 107.888C103.594 108.084 103.977 108.355 104.294 108.7C104.611 109.045 104.859 109.442 105.036 109.89C105.213 110.338 105.302 110.814 105.302 111.318C105.302 111.393 105.302 111.467 105.302 111.542C105.302 111.617 105.297 111.668 105.288 111.696H99.0439C99.0719 112.088 99.1606 112.452 99.3099 112.788C99.4686 113.115 99.6692 113.399 99.9119 113.642C100.155 113.885 100.43 114.076 100.738 114.216C101.055 114.347 101.391 114.412 101.746 114.412C101.979 114.412 102.213 114.379 102.446 114.314C102.679 114.249 102.894 114.16 103.09 114.048C103.286 113.936 103.463 113.801 103.622 113.642C103.781 113.474 103.902 113.292 103.986 113.096L104.812 113.32C104.7 113.591 104.541 113.838 104.336 114.062C104.131 114.277 103.893 114.468 103.622 114.636C103.351 114.795 103.053 114.916 102.726 115C102.399 115.093 102.059 115.14 101.704 115.14ZM104.392 110.968C104.364 110.576 104.271 110.221 104.112 109.904C103.963 109.577 103.767 109.297 103.524 109.064C103.291 108.831 103.015 108.649 102.698 108.518C102.39 108.387 102.059 108.322 101.704 108.322C101.349 108.322 101.013 108.387 100.696 108.518C100.379 108.649 100.099 108.831 99.8559 109.064C99.6226 109.297 99.4312 109.577 99.2819 109.904C99.1419 110.231 99.0579 110.585 99.0299 110.968H104.392ZM117.621 115H116.669V110.926C116.669 110.077 116.533 109.451 116.263 109.05C115.992 108.649 115.591 108.448 115.059 108.448C114.779 108.448 114.513 108.499 114.261 108.602C114.018 108.705 113.789 108.849 113.575 109.036C113.369 109.223 113.187 109.447 113.029 109.708C112.87 109.96 112.749 110.24 112.665 110.548V115H111.713V110.926C111.713 110.058 111.582 109.428 111.321 109.036C111.059 108.644 110.658 108.448 110.117 108.448C109.566 108.448 109.076 108.639 108.647 109.022C108.217 109.405 107.909 109.909 107.723 110.534V115H106.771V107.706H107.639V109.358C107.937 108.798 108.329 108.364 108.815 108.056C109.3 107.739 109.837 107.58 110.425 107.58C111.041 107.58 111.531 107.753 111.895 108.098C112.268 108.443 112.497 108.896 112.581 109.456C113.262 108.205 114.2 107.58 115.395 107.58C115.805 107.58 116.151 107.655 116.431 107.804C116.72 107.953 116.949 108.168 117.117 108.448C117.294 108.719 117.42 109.05 117.495 109.442C117.579 109.825 117.621 110.254 117.621 110.73V115ZM126.928 115.14C126.312 115.14 125.766 114.986 125.29 114.678C124.824 114.361 124.446 113.964 124.156 113.488V117.982H123.204V107.706H124.058V109.12C124.357 108.663 124.744 108.294 125.22 108.014C125.696 107.725 126.214 107.58 126.774 107.58C127.278 107.58 127.74 107.687 128.16 107.902C128.58 108.107 128.944 108.387 129.252 108.742C129.56 109.087 129.798 109.489 129.966 109.946C130.144 110.403 130.232 110.875 130.232 111.36C130.232 111.873 130.153 112.359 129.994 112.816C129.836 113.273 129.607 113.675 129.308 114.02C129.019 114.365 128.669 114.641 128.258 114.846C127.857 115.042 127.414 115.14 126.928 115.14ZM126.662 114.3C127.054 114.3 127.409 114.216 127.726 114.048C128.053 113.88 128.328 113.661 128.552 113.39C128.786 113.11 128.963 112.797 129.084 112.452C129.206 112.097 129.266 111.733 129.266 111.36C129.266 110.968 129.196 110.595 129.056 110.24C128.916 109.885 128.725 109.573 128.482 109.302C128.24 109.031 127.95 108.817 127.614 108.658C127.288 108.499 126.933 108.42 126.55 108.42C126.308 108.42 126.051 108.471 125.78 108.574C125.519 108.667 125.272 108.798 125.038 108.966C124.814 109.125 124.618 109.316 124.45 109.54C124.292 109.755 124.194 109.983 124.156 110.226V112.466C124.268 112.727 124.408 112.97 124.576 113.194C124.754 113.418 124.95 113.614 125.164 113.782C125.388 113.941 125.626 114.067 125.878 114.16C126.13 114.253 126.392 114.3 126.662 114.3ZM133.679 115.14C133.334 115.14 133.012 115.084 132.713 114.972C132.424 114.851 132.167 114.687 131.943 114.482C131.728 114.277 131.56 114.039 131.439 113.768C131.318 113.488 131.257 113.189 131.257 112.872C131.257 112.555 131.332 112.261 131.481 111.99C131.63 111.719 131.84 111.486 132.111 111.29C132.382 111.094 132.704 110.945 133.077 110.842C133.45 110.73 133.861 110.674 134.309 110.674C134.682 110.674 135.06 110.707 135.443 110.772C135.826 110.837 136.166 110.931 136.465 111.052V110.394C136.465 109.75 136.283 109.241 135.919 108.868C135.555 108.485 135.051 108.294 134.407 108.294C134.034 108.294 133.651 108.369 133.259 108.518C132.867 108.667 132.47 108.882 132.069 109.162L131.733 108.532C132.676 107.897 133.59 107.58 134.477 107.58C135.392 107.58 136.11 107.837 136.633 108.35C137.156 108.863 137.417 109.573 137.417 110.478V113.768C137.417 114.029 137.534 114.16 137.767 114.16V115C137.608 115.028 137.487 115.042 137.403 115.042C137.16 115.042 136.969 114.981 136.829 114.86C136.698 114.739 136.628 114.571 136.619 114.356L136.591 113.782C136.255 114.221 135.83 114.557 135.317 114.79C134.813 115.023 134.267 115.14 133.679 115.14ZM133.903 114.412C134.398 114.412 134.85 114.319 135.261 114.132C135.681 113.945 135.998 113.698 136.213 113.39C136.297 113.306 136.358 113.217 136.395 113.124C136.442 113.021 136.465 112.928 136.465 112.844V111.654C136.148 111.533 135.816 111.439 135.471 111.374C135.135 111.309 134.79 111.276 134.435 111.276C133.763 111.276 133.217 111.416 132.797 111.696C132.377 111.976 132.167 112.345 132.167 112.802C132.167 113.026 132.209 113.236 132.293 113.432C132.386 113.628 132.508 113.801 132.657 113.95C132.816 114.09 133.002 114.202 133.217 114.286C133.432 114.37 133.66 114.412 133.903 114.412ZM143.114 108.546C142.47 108.565 141.91 108.742 141.434 109.078C140.958 109.414 140.622 109.876 140.426 110.464V115H139.474V107.706H140.37V109.456C140.64 108.896 141.004 108.457 141.462 108.14C141.919 107.823 142.409 107.664 142.932 107.664C143.006 107.664 143.067 107.669 143.114 107.678V108.546ZM146.12 115.14C145.775 115.14 145.453 115.084 145.154 114.972C144.865 114.851 144.608 114.687 144.384 114.482C144.17 114.277 144.002 114.039 143.88 113.768C143.759 113.488 143.698 113.189 143.698 112.872C143.698 112.555 143.773 112.261 143.922 111.99C144.072 111.719 144.282 111.486 144.552 111.29C144.823 111.094 145.145 110.945 145.518 110.842C145.892 110.73 146.302 110.674 146.75 110.674C147.124 110.674 147.502 110.707 147.884 110.772C148.267 110.837 148.608 110.931 148.906 111.052V110.394C148.906 109.75 148.724 109.241 148.36 108.868C147.996 108.485 147.492 108.294 146.848 108.294C146.475 108.294 146.092 108.369 145.7 108.518C145.308 108.667 144.912 108.882 144.51 109.162L144.174 108.532C145.117 107.897 146.032 107.58 146.918 107.58C147.833 107.58 148.552 107.837 149.074 108.35C149.597 108.863 149.858 109.573 149.858 110.478V113.768C149.858 114.029 149.975 114.16 150.208 114.16V115C150.05 115.028 149.928 115.042 149.844 115.042C149.602 115.042 149.41 114.981 149.27 114.86C149.14 114.739 149.07 114.571 149.06 114.356L149.032 113.782C148.696 114.221 148.272 114.557 147.758 114.79C147.254 115.023 146.708 115.14 146.12 115.14ZM146.344 114.412C146.839 114.412 147.292 114.319 147.702 114.132C148.122 113.945 148.44 113.698 148.654 113.39C148.738 113.306 148.799 113.217 148.836 113.124C148.883 113.021 148.906 112.928 148.906 112.844V111.654C148.589 111.533 148.258 111.439 147.912 111.374C147.576 111.309 147.231 111.276 146.876 111.276C146.204 111.276 145.658 111.416 145.238 111.696C144.818 111.976 144.608 112.345 144.608 112.802C144.608 113.026 144.65 113.236 144.734 113.432C144.828 113.628 144.949 113.801 145.098 113.95C145.257 114.09 145.444 114.202 145.658 114.286C145.873 114.37 146.102 114.412 146.344 114.412ZM158.592 115.14C158.06 115.14 157.574 115.042 157.136 114.846C156.697 114.641 156.314 114.365 155.988 114.02C155.67 113.675 155.423 113.273 155.246 112.816C155.068 112.359 154.98 111.878 154.98 111.374C154.98 110.861 155.068 110.375 155.246 109.918C155.432 109.461 155.684 109.059 156.002 108.714C156.328 108.369 156.711 108.093 157.15 107.888C157.588 107.683 158.069 107.58 158.592 107.58C159.114 107.58 159.595 107.683 160.034 107.888C160.482 108.093 160.864 108.369 161.182 108.714C161.508 109.059 161.76 109.461 161.938 109.918C162.124 110.375 162.218 110.861 162.218 111.374C162.218 111.878 162.129 112.359 161.952 112.816C161.774 113.273 161.522 113.675 161.196 114.02C160.878 114.365 160.496 114.641 160.048 114.846C159.609 115.042 159.124 115.14 158.592 115.14ZM155.946 111.388C155.946 111.799 156.016 112.181 156.156 112.536C156.296 112.881 156.482 113.189 156.716 113.46C156.958 113.721 157.238 113.927 157.556 114.076C157.882 114.225 158.228 114.3 158.592 114.3C158.956 114.3 159.296 114.225 159.614 114.076C159.94 113.917 160.225 113.707 160.468 113.446C160.71 113.175 160.902 112.863 161.042 112.508C161.182 112.153 161.252 111.771 161.252 111.36C161.252 110.959 161.182 110.581 161.042 110.226C160.902 109.862 160.71 109.549 160.468 109.288C160.225 109.017 159.94 108.807 159.614 108.658C159.296 108.499 158.956 108.42 158.592 108.42C158.228 108.42 157.887 108.499 157.57 108.658C157.252 108.807 156.972 109.017 156.73 109.288C156.487 109.559 156.296 109.876 156.156 110.24C156.016 110.595 155.946 110.977 155.946 111.388ZM171.102 115.14C170.486 115.14 169.94 114.986 169.464 114.678C168.997 114.361 168.619 113.964 168.33 113.488V117.982H167.378V107.706H168.232V109.12C168.531 108.663 168.918 108.294 169.394 108.014C169.87 107.725 170.388 107.58 170.948 107.58C171.452 107.58 171.914 107.687 172.334 107.902C172.754 108.107 173.118 108.387 173.426 108.742C173.734 109.087 173.972 109.489 174.14 109.946C174.317 110.403 174.406 110.875 174.406 111.36C174.406 111.873 174.327 112.359 174.168 112.816C174.009 113.273 173.781 113.675 173.482 114.02C173.193 114.365 172.843 114.641 172.432 114.846C172.031 115.042 171.587 115.14 171.102 115.14ZM170.836 114.3C171.228 114.3 171.583 114.216 171.9 114.048C172.227 113.88 172.502 113.661 172.726 113.39C172.959 113.11 173.137 112.797 173.258 112.452C173.379 112.097 173.44 111.733 173.44 111.36C173.44 110.968 173.37 110.595 173.23 110.24C173.09 109.885 172.899 109.573 172.656 109.302C172.413 109.031 172.124 108.817 171.788 108.658C171.461 108.499 171.107 108.42 170.724 108.42C170.481 108.42 170.225 108.471 169.954 108.574C169.693 108.667 169.445 108.798 169.212 108.966C168.988 109.125 168.792 109.316 168.624 109.54C168.465 109.755 168.367 109.983 168.33 110.226V112.466C168.442 112.727 168.582 112.97 168.75 113.194C168.927 113.418 169.123 113.614 169.338 113.782C169.562 113.941 169.8 114.067 170.052 114.16C170.304 114.253 170.565 114.3 170.836 114.3ZM179.659 108.546C179.015 108.565 178.455 108.742 177.979 109.078C177.503 109.414 177.167 109.876 176.971 110.464V115H176.019V107.706H176.915V109.456C177.185 108.896 177.549 108.457 178.007 108.14C178.464 107.823 178.954 107.664 179.477 107.664C179.551 107.664 179.612 107.669 179.659 107.678V108.546ZM183.666 115.14C183.134 115.14 182.648 115.042 182.21 114.846C181.771 114.641 181.388 114.365 181.062 114.02C180.744 113.675 180.497 113.273 180.32 112.816C180.142 112.359 180.054 111.878 180.054 111.374C180.054 110.861 180.142 110.375 180.32 109.918C180.506 109.461 180.758 109.059 181.076 108.714C181.402 108.369 181.785 108.093 182.224 107.888C182.662 107.683 183.143 107.58 183.666 107.58C184.188 107.58 184.669 107.683 185.108 107.888C185.556 108.093 185.938 108.369 186.256 108.714C186.582 109.059 186.834 109.461 187.012 109.918C187.198 110.375 187.292 110.861 187.292 111.374C187.292 111.878 187.203 112.359 187.026 112.816C186.848 113.273 186.596 113.675 186.27 114.02C185.952 114.365 185.57 114.641 185.122 114.846C184.683 115.042 184.198 115.14 183.666 115.14ZM181.02 111.388C181.02 111.799 181.09 112.181 181.23 112.536C181.37 112.881 181.556 113.189 181.79 113.46C182.032 113.721 182.312 113.927 182.63 114.076C182.956 114.225 183.302 114.3 183.666 114.3C184.03 114.3 184.37 114.225 184.688 114.076C185.014 113.917 185.299 113.707 185.542 113.446C185.784 113.175 185.976 112.863 186.116 112.508C186.256 112.153 186.326 111.771 186.326 111.36C186.326 110.959 186.256 110.581 186.116 110.226C185.976 109.862 185.784 109.549 185.542 109.288C185.299 109.017 185.014 108.807 184.688 108.658C184.37 108.499 184.03 108.42 183.666 108.42C183.302 108.42 182.961 108.499 182.644 108.658C182.326 108.807 182.046 109.017 181.804 109.288C181.561 109.559 181.37 109.876 181.23 110.24C181.09 110.595 181.02 110.977 181.02 111.388ZM191.88 115.14C191.376 115.14 190.909 115.037 190.48 114.832C190.051 114.617 189.682 114.337 189.374 113.992C189.066 113.647 188.823 113.25 188.646 112.802C188.478 112.345 188.394 111.869 188.394 111.374C188.394 110.861 188.478 110.375 188.646 109.918C188.814 109.451 189.043 109.045 189.332 108.7C189.631 108.355 189.981 108.084 190.382 107.888C190.793 107.683 191.241 107.58 191.726 107.58C192.342 107.58 192.888 107.743 193.364 108.07C193.84 108.387 194.213 108.775 194.484 109.232V104.78H195.436V113.768C195.436 114.029 195.548 114.16 195.772 114.16V115C195.632 115.028 195.52 115.042 195.436 115.042C195.212 115.042 195.016 114.972 194.848 114.832C194.68 114.683 194.596 114.505 194.596 114.3V113.586C194.307 114.062 193.915 114.44 193.42 114.72C192.925 115 192.412 115.14 191.88 115.14ZM192.09 114.3C192.323 114.3 192.571 114.253 192.832 114.16C193.103 114.067 193.355 113.941 193.588 113.782C193.821 113.614 194.017 113.423 194.176 113.208C194.344 112.984 194.447 112.746 194.484 112.494V110.24C194.391 109.988 194.255 109.755 194.078 109.54C193.901 109.316 193.695 109.12 193.462 108.952C193.238 108.784 192.995 108.653 192.734 108.56C192.473 108.467 192.216 108.42 191.964 108.42C191.572 108.42 191.217 108.504 190.9 108.672C190.583 108.84 190.307 109.064 190.074 109.344C189.85 109.615 189.677 109.927 189.556 110.282C189.435 110.637 189.374 111.001 189.374 111.374C189.374 111.766 189.444 112.139 189.584 112.494C189.724 112.849 189.915 113.161 190.158 113.432C190.401 113.693 190.685 113.903 191.012 114.062C191.348 114.221 191.707 114.3 192.09 114.3ZM199.875 115.14C199.082 115.14 198.489 114.879 198.097 114.356C197.714 113.824 197.523 113.035 197.523 111.99V107.706H198.475V111.822C198.475 113.474 199.04 114.3 200.169 114.3C200.449 114.3 200.724 114.253 200.995 114.16C201.266 114.067 201.513 113.931 201.737 113.754C201.97 113.577 202.176 113.367 202.353 113.124C202.54 112.881 202.689 112.606 202.801 112.298V107.706H203.753V113.768C203.753 114.029 203.865 114.16 204.089 114.16V115C203.977 115.019 203.884 115.028 203.809 115.028C203.744 115.028 203.697 115.028 203.669 115.028C203.445 115.019 203.263 114.939 203.123 114.79C202.983 114.641 202.913 114.44 202.913 114.188V113.348C202.596 113.917 202.162 114.361 201.611 114.678C201.07 114.986 200.491 115.14 199.875 115.14ZM209.405 114.65C209.349 114.678 209.265 114.715 209.153 114.762C209.051 114.809 208.929 114.855 208.789 114.902C208.649 114.949 208.491 114.991 208.313 115.028C208.136 115.065 207.949 115.084 207.753 115.084C207.548 115.084 207.352 115.056 207.165 115C206.979 114.944 206.815 114.86 206.675 114.748C206.535 114.627 206.423 114.477 206.339 114.3C206.255 114.123 206.213 113.917 206.213 113.684V108.462H205.205V107.706H206.213V105.242H207.165V107.706H208.845V108.462H207.165V113.418C207.184 113.689 207.277 113.889 207.445 114.02C207.623 114.141 207.823 114.202 208.047 114.202C208.318 114.202 208.556 114.16 208.761 114.076C208.967 113.983 209.097 113.917 209.153 113.88L209.405 114.65ZM213.525 115.14C212.993 115.14 212.508 115.042 212.069 114.846C211.631 114.641 211.248 114.365 210.921 114.02C210.604 113.675 210.357 113.273 210.179 112.816C210.002 112.359 209.913 111.878 209.913 111.374C209.913 110.861 210.002 110.375 210.179 109.918C210.366 109.461 210.618 109.059 210.935 108.714C211.262 108.369 211.645 108.093 212.083 107.888C212.522 107.683 213.003 107.58 213.525 107.58C214.048 107.58 214.529 107.683 214.967 107.888C215.415 108.093 215.798 108.369 216.115 108.714C216.442 109.059 216.694 109.461 216.871 109.918C217.058 110.375 217.151 110.861 217.151 111.374C217.151 111.878 217.063 112.359 216.885 112.816C216.708 113.273 216.456 113.675 216.129 114.02C215.812 114.365 215.429 114.641 214.981 114.846C214.543 115.042 214.057 115.14 213.525 115.14ZM210.879 111.388C210.879 111.799 210.949 112.181 211.089 112.536C211.229 112.881 211.416 113.189 211.649 113.46C211.892 113.721 212.172 113.927 212.489 114.076C212.816 114.225 213.161 114.3 213.525 114.3C213.889 114.3 214.23 114.225 214.547 114.076C214.874 113.917 215.159 113.707 215.401 113.446C215.644 113.175 215.835 112.863 215.975 112.508C216.115 112.153 216.185 111.771 216.185 111.36C216.185 110.959 216.115 110.581 215.975 110.226C215.835 109.862 215.644 109.549 215.401 109.288C215.159 109.017 214.874 108.807 214.547 108.658C214.23 108.499 213.889 108.42 213.525 108.42C213.161 108.42 212.821 108.499 212.503 108.658C212.186 108.807 211.906 109.017 211.663 109.288C211.421 109.559 211.229 109.876 211.089 110.24C210.949 110.595 210.879 110.977 210.879 111.388Z" fill="#6B6B6B"/>
<rect x="1" y="0.5" width="281" height="151" stroke="#C8C8C8" stroke-dasharray="6 6"/>
</svg>
