<svg width="328" height="134" viewBox="0 0 328 134" fill="none" xmlns="http://www.w3.org/2000/svg">
<rect x="0.5" y="0.5" width="327" height="133" fill="white"/>
<path d="M173.333 50.3334H165.333V58.3334H162.666V50.3334H154.666V47.6667H162.666V39.6667H165.333V47.6667H173.333V50.3334Z" fill="#C8C8C8"/>
<path d="M43.9461 86.06H44.7721L48.9021 96H47.8661L46.5781 92.892H42.1121L40.8381 96H39.7881L43.9461 86.06ZM46.3541 92.122L44.3521 87.208L42.3221 92.122H46.3541ZM52.922 96.14C52.418 96.14 51.9513 96.0373 51.522 95.832C51.0926 95.6173 50.724 95.3373 50.416 94.992C50.108 94.6467 49.8653 94.25 49.688 93.802C49.52 93.3447 49.436 92.8687 49.436 92.374C49.436 91.8607 49.52 91.3753 49.688 90.918C49.856 90.4513 50.0846 90.0453 50.374 89.7C50.6726 89.3547 51.0226 89.084 51.424 88.888C51.8346 88.6827 52.2826 88.58 52.768 88.58C53.384 88.58 53.93 88.7433 54.406 89.07C54.882 89.3873 55.2553 89.7747 55.526 90.232V85.78H56.478V94.768C56.478 95.0293 56.59 95.16 56.814 95.16V96C56.674 96.028 56.562 96.042 56.478 96.042C56.254 96.042 56.058 95.972 55.89 95.832C55.722 95.6827 55.638 95.5053 55.638 95.3V94.586C55.3486 95.062 54.9566 95.44 54.462 95.72C53.9673 96 53.454 96.14 52.922 96.14ZM53.132 95.3C53.3653 95.3 53.6126 95.2533 53.874 95.16C54.1446 95.0667 54.3966 94.9407 54.63 94.782C54.8633 94.614 55.0593 94.4227 55.218 94.208C55.386 93.984 55.4886 93.746 55.526 93.494V91.24C55.4326 90.988 55.2973 90.7547 55.12 90.54C54.9426 90.316 54.7373 90.12 54.504 89.952C54.28 89.784 54.0373 89.6533 53.776 89.56C53.5146 89.4667 53.258 89.42 53.006 89.42C52.614 89.42 52.2593 89.504 51.942 89.672C51.6246 89.84 51.3493 90.064 51.116 90.344C50.892 90.6147 50.7193 90.9273 50.598 91.282C50.4766 91.6367 50.416 92.0007 50.416 92.374C50.416 92.766 50.486 93.1393 50.626 93.494C50.766 93.8487 50.9573 94.1613 51.2 94.432C51.4426 94.6933 51.7273 94.9033 52.054 95.062C52.39 95.2207 52.7493 95.3 53.132 95.3ZM58.635 96V88.706H59.587V96H58.635ZM58.635 87.18V85.78H59.587V87.18H58.635ZM61.1798 92.332C61.1798 91.8187 61.2685 91.3333 61.4458 90.876C61.6231 90.4187 61.8705 90.022 62.1878 89.686C62.5145 89.3407 62.9018 89.07 63.3498 88.874C63.7978 88.678 64.2925 88.58 64.8338 88.58C65.5245 88.58 66.1265 88.7387 66.6398 89.056C67.1531 89.364 67.5405 89.784 67.8018 90.316L66.8778 90.61C66.6725 90.2367 66.3831 89.9473 66.0098 89.742C65.6458 89.5273 65.2398 89.42 64.7918 89.42C64.4185 89.42 64.0685 89.4947 63.7418 89.644C63.4245 89.7933 63.1445 89.9987 62.9018 90.26C62.6685 90.512 62.4818 90.8153 62.3418 91.17C62.2111 91.5247 62.1458 91.912 62.1458 92.332C62.1458 92.7427 62.2158 93.13 62.3558 93.494C62.4958 93.858 62.6871 94.1753 62.9298 94.446C63.1725 94.7073 63.4525 94.9173 63.7698 95.076C64.0965 95.2253 64.4418 95.3 64.8058 95.3C65.0391 95.3 65.2678 95.2673 65.4918 95.202C65.7251 95.1367 65.9398 95.048 66.1358 94.936C66.3318 94.8147 66.4998 94.6793 66.6398 94.53C66.7798 94.3807 66.8778 94.222 66.9338 94.054L67.8718 94.334C67.7691 94.5953 67.6198 94.838 67.4238 95.062C67.2278 95.2767 66.9945 95.468 66.7238 95.636C66.4625 95.7947 66.1685 95.916 65.8418 96C65.5245 96.0933 65.1931 96.14 64.8478 96.14C64.3158 96.14 63.8258 96.042 63.3778 95.846C62.9298 95.6407 62.5425 95.3653 62.2158 95.02C61.8891 94.6653 61.6325 94.2593 61.4458 93.802C61.2685 93.3447 61.1798 92.8547 61.1798 92.332ZM69.3674 96V88.706H70.3194V96H69.3674ZM69.3674 87.18V85.78H70.3194V87.18H69.3674ZM75.5242 96.14C74.9922 96.14 74.5069 96.042 74.0682 95.846C73.6295 95.6407 73.2469 95.3653 72.9202 95.02C72.6029 94.6747 72.3555 94.2733 72.1782 93.816C72.0009 93.3587 71.9122 92.878 71.9122 92.374C71.9122 91.8607 72.0009 91.3753 72.1782 90.918C72.3649 90.4607 72.6169 90.0593 72.9342 89.714C73.2609 89.3687 73.6435 89.0933 74.0822 88.888C74.5209 88.6827 75.0015 88.58 75.5242 88.58C76.0469 88.58 76.5275 88.6827 76.9662 88.888C77.4142 89.0933 77.7969 89.3687 78.1142 89.714C78.4409 90.0593 78.6929 90.4607 78.8702 90.918C79.0569 91.3753 79.1502 91.8607 79.1502 92.374C79.1502 92.878 79.0615 93.3587 78.8842 93.816C78.7069 94.2733 78.4549 94.6747 78.1282 95.02C77.8109 95.3653 77.4282 95.6407 76.9802 95.846C76.5415 96.042 76.0562 96.14 75.5242 96.14ZM72.8782 92.388C72.8782 92.7987 72.9482 93.1813 73.0882 93.536C73.2282 93.8813 73.4149 94.1893 73.6482 94.46C73.8909 94.7213 74.1709 94.9267 74.4882 95.076C74.8149 95.2253 75.1602 95.3 75.5242 95.3C75.8882 95.3 76.2289 95.2253 76.5462 95.076C76.8729 94.9173 77.1575 94.7073 77.4002 94.446C77.6429 94.1753 77.8342 93.8627 77.9742 93.508C78.1142 93.1533 78.1842 92.7707 78.1842 92.36C78.1842 91.9587 78.1142 91.5807 77.9742 91.226C77.8342 90.862 77.6429 90.5493 77.4002 90.288C77.1575 90.0173 76.8729 89.8073 76.5462 89.658C76.2289 89.4993 75.8882 89.42 75.5242 89.42C75.1602 89.42 74.8195 89.4993 74.5022 89.658C74.1849 89.8073 73.9049 90.0173 73.6622 90.288C73.4195 90.5587 73.2282 90.876 73.0882 91.24C72.9482 91.5947 72.8782 91.9773 72.8782 92.388ZM86.8744 96H85.9224V91.926C85.9224 91.058 85.7917 90.428 85.5304 90.036C85.2784 89.644 84.8864 89.448 84.3544 89.448C84.0744 89.448 83.7944 89.4993 83.5144 89.602C83.2344 89.7047 82.973 89.8493 82.7304 90.036C82.497 90.2227 82.287 90.4467 82.1004 90.708C81.9137 90.96 81.7784 91.2353 81.6944 91.534V96H80.7424V88.706H81.6104V90.358C81.909 89.826 82.3337 89.3967 82.8844 89.07C83.4444 88.7433 84.051 88.58 84.7044 88.58C85.1057 88.58 85.4464 88.6547 85.7264 88.804C86.0064 88.9533 86.2304 89.1633 86.3984 89.434C86.5664 89.7047 86.6877 90.036 86.7624 90.428C86.837 90.82 86.8744 91.254 86.8744 91.73V96ZM90.7385 96.14C90.3932 96.14 90.0712 96.084 89.7725 95.972C89.4832 95.8507 89.2265 95.6873 89.0025 95.482C88.7878 95.2767 88.6198 95.0387 88.4985 94.768C88.3772 94.488 88.3165 94.1893 88.3165 93.872C88.3165 93.5547 88.3912 93.2607 88.5405 92.99C88.6898 92.7193 88.8998 92.486 89.1705 92.29C89.4412 92.094 89.7632 91.9447 90.1365 91.842C90.5098 91.73 90.9205 91.674 91.3685 91.674C91.7418 91.674 92.1198 91.7067 92.5025 91.772C92.8852 91.8373 93.2258 91.9307 93.5245 92.052V91.394C93.5245 90.75 93.3425 90.2413 92.9785 89.868C92.6145 89.4853 92.1105 89.294 91.4665 89.294C91.0932 89.294 90.7105 89.3687 90.3185 89.518C89.9265 89.6673 89.5298 89.882 89.1285 90.162L88.7925 89.532C89.7352 88.8973 90.6498 88.58 91.5365 88.58C92.4512 88.58 93.1698 88.8367 93.6925 89.35C94.2152 89.8633 94.4765 90.5727 94.4765 91.478V94.768C94.4765 95.0293 94.5932 95.16 94.8265 95.16V96C94.6678 96.028 94.5465 96.042 94.4625 96.042C94.2198 96.042 94.0285 95.9813 93.8885 95.86C93.7578 95.7387 93.6878 95.5707 93.6785 95.356L93.6505 94.782C93.3145 95.2207 92.8898 95.5567 92.3765 95.79C91.8725 96.0233 91.3265 96.14 90.7385 96.14ZM90.9625 95.412C91.4572 95.412 91.9098 95.3187 92.3205 95.132C92.7405 94.9453 93.0578 94.698 93.2725 94.39C93.3565 94.306 93.4172 94.2173 93.4545 94.124C93.5012 94.0213 93.5245 93.928 93.5245 93.844V92.654C93.2072 92.5327 92.8758 92.4393 92.5305 92.374C92.1945 92.3087 91.8492 92.276 91.4945 92.276C90.8225 92.276 90.2765 92.416 89.8565 92.696C89.4365 92.976 89.2265 93.3447 89.2265 93.802C89.2265 94.026 89.2685 94.236 89.3525 94.432C89.4458 94.628 89.5672 94.8007 89.7165 94.95C89.8752 95.09 90.0618 95.202 90.2765 95.286C90.4912 95.37 90.7198 95.412 90.9625 95.412ZM100.173 89.546C99.5294 89.5647 98.9694 89.742 98.4934 90.078C98.0174 90.414 97.6814 90.876 97.4854 91.464V96H96.5334V88.706H97.4294V90.456C97.7001 89.896 98.0641 89.4573 98.5214 89.14C98.9787 88.8227 99.4687 88.664 99.9914 88.664C100.066 88.664 100.127 88.6687 100.173 88.678V89.546ZM106.95 96.14C106.157 96.14 105.564 95.8787 105.172 95.356C104.789 94.824 104.598 94.0353 104.598 92.99V88.706H105.55V92.822C105.55 94.474 106.115 95.3 107.244 95.3C107.524 95.3 107.799 95.2533 108.07 95.16C108.341 95.0667 108.588 94.9313 108.812 94.754C109.045 94.5767 109.251 94.3667 109.428 94.124C109.615 93.8813 109.764 93.606 109.876 93.298V88.706H110.828V94.768C110.828 95.0293 110.94 95.16 111.164 95.16V96C111.052 96.0187 110.959 96.028 110.884 96.028C110.819 96.028 110.772 96.028 110.744 96.028C110.52 96.0187 110.338 95.9393 110.198 95.79C110.058 95.6407 109.988 95.44 109.988 95.188V94.348C109.671 94.9173 109.237 95.3607 108.686 95.678C108.145 95.986 107.566 96.14 106.95 96.14ZM123.831 96H122.879V91.926C122.879 91.0767 122.743 90.4513 122.473 90.05C122.202 89.6487 121.801 89.448 121.269 89.448C120.989 89.448 120.723 89.4993 120.471 89.602C120.228 89.7047 119.999 89.8493 119.785 90.036C119.579 90.2227 119.397 90.4467 119.239 90.708C119.08 90.96 118.959 91.24 118.875 91.548V96H117.923V91.926C117.923 91.058 117.792 90.428 117.531 90.036C117.269 89.644 116.868 89.448 116.327 89.448C115.776 89.448 115.286 89.6393 114.857 90.022C114.427 90.4047 114.119 90.9087 113.933 91.534V96H112.981V88.706H113.849V90.358C114.147 89.798 114.539 89.364 115.025 89.056C115.51 88.7387 116.047 88.58 116.635 88.58C117.251 88.58 117.741 88.7527 118.105 89.098C118.478 89.4433 118.707 89.896 118.791 90.456C119.472 89.2053 120.41 88.58 121.605 88.58C122.015 88.58 122.361 88.6547 122.641 88.804C122.93 88.9533 123.159 89.168 123.327 89.448C123.504 89.7187 123.63 90.05 123.705 90.442C123.789 90.8247 123.831 91.254 123.831 91.73V96ZM127.68 96.14C127.335 96.14 127.013 96.084 126.714 95.972C126.425 95.8507 126.168 95.6873 125.944 95.482C125.729 95.2767 125.561 95.0387 125.44 94.768C125.319 94.488 125.258 94.1893 125.258 93.872C125.258 93.5547 125.333 93.2607 125.482 92.99C125.631 92.7193 125.841 92.486 126.112 92.29C126.383 92.094 126.705 91.9447 127.078 91.842C127.451 91.73 127.862 91.674 128.31 91.674C128.683 91.674 129.061 91.7067 129.444 91.772C129.827 91.8373 130.167 91.9307 130.466 92.052V91.394C130.466 90.75 130.284 90.2413 129.92 89.868C129.556 89.4853 129.052 89.294 128.408 89.294C128.035 89.294 127.652 89.3687 127.26 89.518C126.868 89.6673 126.471 89.882 126.07 90.162L125.734 89.532C126.677 88.8973 127.591 88.58 128.478 88.58C129.393 88.58 130.111 88.8367 130.634 89.35C131.157 89.8633 131.418 90.5727 131.418 91.478V94.768C131.418 95.0293 131.535 95.16 131.768 95.16V96C131.609 96.028 131.488 96.042 131.404 96.042C131.161 96.042 130.97 95.9813 130.83 95.86C130.699 95.7387 130.629 95.5707 130.62 95.356L130.592 94.782C130.256 95.2207 129.831 95.5567 129.318 95.79C128.814 96.0233 128.268 96.14 127.68 96.14ZM127.904 95.412C128.399 95.412 128.851 95.3187 129.262 95.132C129.682 94.9453 129.999 94.698 130.214 94.39C130.298 94.306 130.359 94.2173 130.396 94.124C130.443 94.0213 130.466 93.928 130.466 93.844V92.654C130.149 92.5327 129.817 92.4393 129.472 92.374C129.136 92.3087 128.791 92.276 128.436 92.276C127.764 92.276 127.218 92.416 126.798 92.696C126.378 92.976 126.168 93.3447 126.168 93.802C126.168 94.026 126.21 94.236 126.294 94.432C126.387 94.628 126.509 94.8007 126.658 94.95C126.817 95.09 127.003 95.202 127.218 95.286C127.433 95.37 127.661 95.412 127.904 95.412ZM137.043 96V88.706H137.995V96H137.043ZM137.043 87.18V85.78H137.995V87.18H137.043ZM150.942 96H149.99V91.926C149.99 91.0767 149.855 90.4513 149.584 90.05C149.313 89.6487 148.912 89.448 148.38 89.448C148.1 89.448 147.834 89.4993 147.582 89.602C147.339 89.7047 147.111 89.8493 146.896 90.036C146.691 90.2227 146.509 90.4467 146.35 90.708C146.191 90.96 146.07 91.24 145.986 91.548V96H145.034V91.926C145.034 91.058 144.903 90.428 144.642 90.036C144.381 89.644 143.979 89.448 143.438 89.448C142.887 89.448 142.397 89.6393 141.968 90.022C141.539 90.4047 141.231 90.9087 141.044 91.534V96H140.092V88.706H140.96V90.358C141.259 89.798 141.651 89.364 142.136 89.056C142.621 88.7387 143.158 88.58 143.746 88.58C144.362 88.58 144.852 88.7527 145.216 89.098C145.589 89.4433 145.818 89.896 145.902 90.456C146.583 89.2053 147.521 88.58 148.716 88.58C149.127 88.58 149.472 88.6547 149.752 88.804C150.041 88.9533 150.27 89.168 150.438 89.448C150.615 89.7187 150.741 90.05 150.816 90.442C150.9 90.8247 150.942 91.254 150.942 91.73V96ZM154.791 96.14C154.446 96.14 154.124 96.084 153.825 95.972C153.536 95.8507 153.279 95.6873 153.055 95.482C152.841 95.2767 152.673 95.0387 152.551 94.768C152.43 94.488 152.369 94.1893 152.369 93.872C152.369 93.5547 152.444 93.2607 152.593 92.99C152.743 92.7193 152.953 92.486 153.223 92.29C153.494 92.094 153.816 91.9447 154.189 91.842C154.563 91.73 154.973 91.674 155.421 91.674C155.795 91.674 156.173 91.7067 156.555 91.772C156.938 91.8373 157.279 91.9307 157.577 92.052V91.394C157.577 90.75 157.395 90.2413 157.031 89.868C156.667 89.4853 156.163 89.294 155.519 89.294C155.146 89.294 154.763 89.3687 154.371 89.518C153.979 89.6673 153.583 89.882 153.181 90.162L152.845 89.532C153.788 88.8973 154.703 88.58 155.589 88.58C156.504 88.58 157.223 88.8367 157.745 89.35C158.268 89.8633 158.529 90.5727 158.529 91.478V94.768C158.529 95.0293 158.646 95.16 158.879 95.16V96C158.721 96.028 158.599 96.042 158.515 96.042C158.273 96.042 158.081 95.9813 157.941 95.86C157.811 95.7387 157.741 95.5707 157.731 95.356L157.703 94.782C157.367 95.2207 156.943 95.5567 156.429 95.79C155.925 96.0233 155.379 96.14 154.791 96.14ZM155.015 95.412C155.51 95.412 155.963 95.3187 156.373 95.132C156.793 94.9453 157.111 94.698 157.325 94.39C157.409 94.306 157.47 94.2173 157.507 94.124C157.554 94.0213 157.577 93.928 157.577 93.844V92.654C157.26 92.5327 156.929 92.4393 156.583 92.374C156.247 92.3087 155.902 92.276 155.547 92.276C154.875 92.276 154.329 92.416 153.909 92.696C153.489 92.976 153.279 93.3447 153.279 93.802C153.279 94.026 153.321 94.236 153.405 94.432C153.499 94.628 153.62 94.8007 153.769 94.95C153.928 95.09 154.115 95.202 154.329 95.286C154.544 95.37 154.773 95.412 155.015 95.412ZM163.512 96.098C163.008 96.098 162.546 95.9953 162.126 95.79C161.715 95.5753 161.356 95.2953 161.048 94.95C160.749 94.6047 160.516 94.208 160.348 93.76C160.18 93.312 160.096 92.85 160.096 92.374C160.096 91.87 160.175 91.3893 160.334 90.932C160.502 90.4653 160.735 90.0593 161.034 89.714C161.333 89.3687 161.687 89.0933 162.098 88.888C162.518 88.6827 162.98 88.58 163.484 88.58C164.109 88.58 164.651 88.7387 165.108 89.056C165.565 89.364 165.957 89.756 166.284 90.232V88.706H167.138V96.028C167.138 96.532 167.04 96.9753 166.844 97.358C166.657 97.75 166.401 98.0767 166.074 98.338C165.757 98.5993 165.379 98.7953 164.94 98.926C164.511 99.0567 164.053 99.122 163.568 99.122C162.728 99.122 162.051 98.9727 161.538 98.674C161.025 98.3753 160.609 97.974 160.292 97.47L160.88 97.008C161.169 97.4747 161.552 97.8153 162.028 98.03C162.504 98.254 163.017 98.366 163.568 98.366C163.923 98.366 164.259 98.3147 164.576 98.212C164.893 98.1187 165.169 97.974 165.402 97.778C165.645 97.5913 165.836 97.3487 165.976 97.05C166.116 96.7607 166.186 96.42 166.186 96.028V94.586C165.906 95.0527 165.523 95.4213 165.038 95.692C164.553 95.9627 164.044 96.098 163.512 96.098ZM163.778 95.3C164.058 95.3 164.333 95.2487 164.604 95.146C164.875 95.0433 165.117 94.908 165.332 94.74C165.556 94.5627 165.743 94.3667 165.892 94.152C166.041 93.9373 166.139 93.718 166.186 93.494V91.24C166.083 90.9787 165.943 90.736 165.766 90.512C165.589 90.288 165.388 90.0967 165.164 89.938C164.94 89.7793 164.697 89.6533 164.436 89.56C164.184 89.4667 163.927 89.42 163.666 89.42C163.255 89.42 162.887 89.5087 162.56 89.686C162.243 89.854 161.972 90.078 161.748 90.358C161.524 90.638 161.351 90.9553 161.23 91.31C161.118 91.6647 161.062 92.024 161.062 92.388C161.062 92.78 161.132 93.1533 161.272 93.508C161.412 93.8627 161.603 94.1753 161.846 94.446C162.098 94.7073 162.387 94.9173 162.714 95.076C163.041 95.2253 163.395 95.3 163.778 95.3ZM172.39 96.14C171.858 96.14 171.368 96.042 170.92 95.846C170.482 95.6407 170.099 95.3653 169.772 95.02C169.446 94.6653 169.189 94.2593 169.002 93.802C168.825 93.3447 168.736 92.8547 168.736 92.332C168.736 91.8187 168.825 91.338 169.002 90.89C169.189 90.4327 169.441 90.036 169.758 89.7C170.085 89.3547 170.472 89.084 170.92 88.888C171.368 88.6827 171.854 88.58 172.376 88.58C172.908 88.58 173.394 88.6827 173.832 88.888C174.28 89.084 174.663 89.3547 174.98 89.7C175.298 90.0453 175.545 90.442 175.722 90.89C175.9 91.338 175.988 91.814 175.988 92.318C175.988 92.3927 175.988 92.4673 175.988 92.542C175.988 92.6167 175.984 92.668 175.974 92.696H169.73C169.758 93.088 169.847 93.452 169.996 93.788C170.155 94.1147 170.356 94.3993 170.598 94.642C170.841 94.8847 171.116 95.076 171.424 95.216C171.742 95.3467 172.078 95.412 172.432 95.412C172.666 95.412 172.899 95.3793 173.132 95.314C173.366 95.2487 173.58 95.16 173.776 95.048C173.972 94.936 174.15 94.8007 174.308 94.642C174.467 94.474 174.588 94.292 174.672 94.096L175.498 94.32C175.386 94.5907 175.228 94.838 175.022 95.062C174.817 95.2767 174.579 95.468 174.308 95.636C174.038 95.7947 173.739 95.916 173.412 96C173.086 96.0933 172.745 96.14 172.39 96.14ZM175.078 91.968C175.05 91.576 174.957 91.2213 174.798 90.904C174.649 90.5773 174.453 90.2973 174.21 90.064C173.977 89.8307 173.702 89.6487 173.384 89.518C173.076 89.3873 172.745 89.322 172.39 89.322C172.036 89.322 171.7 89.3873 171.382 89.518C171.065 89.6487 170.785 89.8307 170.542 90.064C170.309 90.2973 170.118 90.5773 169.968 90.904C169.828 91.2307 169.744 91.5853 169.716 91.968H175.078ZM188.307 96H187.355V91.926C187.355 91.0767 187.22 90.4513 186.949 90.05C186.679 89.6487 186.277 89.448 185.745 89.448C185.465 89.448 185.199 89.4993 184.947 89.602C184.705 89.7047 184.476 89.8493 184.261 90.036C184.056 90.2227 183.874 90.4467 183.715 90.708C183.557 90.96 183.435 91.24 183.351 91.548V96H182.399V91.926C182.399 91.058 182.269 90.428 182.007 90.036C181.746 89.644 181.345 89.448 180.803 89.448C180.253 89.448 179.763 89.6393 179.333 90.022C178.904 90.4047 178.596 90.9087 178.409 91.534V96H177.457V88.706H178.325V90.358C178.624 89.798 179.016 89.364 179.501 89.056C179.987 88.7387 180.523 88.58 181.111 88.58C181.727 88.58 182.217 88.7527 182.581 89.098C182.955 89.4433 183.183 89.896 183.267 90.456C183.949 89.2053 184.887 88.58 186.081 88.58C186.492 88.58 186.837 88.6547 187.117 88.804C187.407 88.9533 187.635 89.168 187.803 89.448C187.981 89.7187 188.107 90.05 188.181 90.442C188.265 90.8247 188.307 91.254 188.307 91.73V96ZM197.615 96.14C196.999 96.14 196.453 95.986 195.977 95.678C195.51 95.3607 195.132 94.964 194.843 94.488V98.982H193.891V88.706H194.745V90.12C195.043 89.6627 195.431 89.294 195.907 89.014C196.383 88.7247 196.901 88.58 197.461 88.58C197.965 88.58 198.427 88.6873 198.847 88.902C199.267 89.1073 199.631 89.3873 199.939 89.742C200.247 90.0873 200.485 90.4887 200.653 90.946C200.83 91.4033 200.919 91.8747 200.919 92.36C200.919 92.8733 200.839 93.3587 200.681 93.816C200.522 94.2733 200.293 94.6747 199.995 95.02C199.705 95.3653 199.355 95.6407 198.945 95.846C198.543 96.042 198.1 96.14 197.615 96.14ZM197.349 95.3C197.741 95.3 198.095 95.216 198.413 95.048C198.739 94.88 199.015 94.6607 199.239 94.39C199.472 94.11 199.649 93.7973 199.771 93.452C199.892 93.0973 199.953 92.7333 199.953 92.36C199.953 91.968 199.883 91.5947 199.743 91.24C199.603 90.8853 199.411 90.5727 199.169 90.302C198.926 90.0313 198.637 89.8167 198.301 89.658C197.974 89.4993 197.619 89.42 197.237 89.42C196.994 89.42 196.737 89.4713 196.467 89.574C196.205 89.6673 195.958 89.798 195.725 89.966C195.501 90.1247 195.305 90.316 195.137 90.54C194.978 90.7547 194.88 90.9833 194.843 91.226V93.466C194.955 93.7273 195.095 93.97 195.263 94.194C195.44 94.418 195.636 94.614 195.851 94.782C196.075 94.9407 196.313 95.0667 196.565 95.16C196.817 95.2533 197.078 95.3 197.349 95.3ZM204.365 96.14C204.02 96.14 203.698 96.084 203.399 95.972C203.11 95.8507 202.853 95.6873 202.629 95.482C202.415 95.2767 202.247 95.0387 202.125 94.768C202.004 94.488 201.943 94.1893 201.943 93.872C201.943 93.5547 202.018 93.2607 202.167 92.99C202.317 92.7193 202.527 92.486 202.797 92.29C203.068 92.094 203.39 91.9447 203.763 91.842C204.137 91.73 204.547 91.674 204.995 91.674C205.369 91.674 205.747 91.7067 206.129 91.772C206.512 91.8373 206.853 91.9307 207.151 92.052V91.394C207.151 90.75 206.969 90.2413 206.605 89.868C206.241 89.4853 205.737 89.294 205.093 89.294C204.72 89.294 204.337 89.3687 203.945 89.518C203.553 89.6673 203.157 89.882 202.755 90.162L202.419 89.532C203.362 88.8973 204.277 88.58 205.163 88.58C206.078 88.58 206.797 88.8367 207.319 89.35C207.842 89.8633 208.103 90.5727 208.103 91.478V94.768C208.103 95.0293 208.22 95.16 208.453 95.16V96C208.295 96.028 208.173 96.042 208.089 96.042C207.847 96.042 207.655 95.9813 207.515 95.86C207.385 95.7387 207.315 95.5707 207.305 95.356L207.277 94.782C206.941 95.2207 206.517 95.5567 206.003 95.79C205.499 96.0233 204.953 96.14 204.365 96.14ZM204.589 95.412C205.084 95.412 205.537 95.3187 205.947 95.132C206.367 94.9453 206.685 94.698 206.899 94.39C206.983 94.306 207.044 94.2173 207.081 94.124C207.128 94.0213 207.151 93.928 207.151 93.844V92.654C206.834 92.5327 206.503 92.4393 206.157 92.374C205.821 92.3087 205.476 92.276 205.121 92.276C204.449 92.276 203.903 92.416 203.483 92.696C203.063 92.976 202.853 93.3447 202.853 93.802C202.853 94.026 202.895 94.236 202.979 94.432C203.073 94.628 203.194 94.8007 203.343 94.95C203.502 95.09 203.689 95.202 203.903 95.286C204.118 95.37 204.347 95.412 204.589 95.412ZM213.8 89.546C213.156 89.5647 212.596 89.742 212.12 90.078C211.644 90.414 211.308 90.876 211.112 91.464V96H210.16V88.706H211.056V90.456C211.327 89.896 211.691 89.4573 212.148 89.14C212.606 88.8227 213.096 88.664 213.618 88.664C213.693 88.664 213.754 88.6687 213.8 88.678V89.546ZM216.807 96.14C216.462 96.14 216.14 96.084 215.841 95.972C215.552 95.8507 215.295 95.6873 215.071 95.482C214.856 95.2767 214.688 95.0387 214.567 94.768C214.446 94.488 214.385 94.1893 214.385 93.872C214.385 93.5547 214.46 93.2607 214.609 92.99C214.758 92.7193 214.968 92.486 215.239 92.29C215.51 92.094 215.832 91.9447 216.205 91.842C216.578 91.73 216.989 91.674 217.437 91.674C217.81 91.674 218.188 91.7067 218.571 91.772C218.954 91.8373 219.294 91.9307 219.593 92.052V91.394C219.593 90.75 219.411 90.2413 219.047 89.868C218.683 89.4853 218.179 89.294 217.535 89.294C217.162 89.294 216.779 89.3687 216.387 89.518C215.995 89.6673 215.598 89.882 215.197 90.162L214.861 89.532C215.804 88.8973 216.718 88.58 217.605 88.58C218.52 88.58 219.238 88.8367 219.761 89.35C220.284 89.8633 220.545 90.5727 220.545 91.478V94.768C220.545 95.0293 220.662 95.16 220.895 95.16V96C220.736 96.028 220.615 96.042 220.531 96.042C220.288 96.042 220.097 95.9813 219.957 95.86C219.826 95.7387 219.756 95.5707 219.747 95.356L219.719 94.782C219.383 95.2207 218.958 95.5567 218.445 95.79C217.941 96.0233 217.395 96.14 216.807 96.14ZM217.031 95.412C217.526 95.412 217.978 95.3187 218.389 95.132C218.809 94.9453 219.126 94.698 219.341 94.39C219.425 94.306 219.486 94.2173 219.523 94.124C219.57 94.0213 219.593 93.928 219.593 93.844V92.654C219.276 92.5327 218.944 92.4393 218.599 92.374C218.263 92.3087 217.918 92.276 217.563 92.276C216.891 92.276 216.345 92.416 215.925 92.696C215.505 92.976 215.295 93.3447 215.295 93.802C215.295 94.026 215.337 94.236 215.421 94.432C215.514 94.628 215.636 94.8007 215.785 94.95C215.944 95.09 216.13 95.202 216.345 95.286C216.56 95.37 216.788 95.412 217.031 95.412ZM229.278 96.14C228.746 96.14 228.261 96.042 227.822 95.846C227.383 95.6407 227.001 95.3653 226.674 95.02C226.357 94.6747 226.109 94.2733 225.932 93.816C225.755 93.3587 225.666 92.878 225.666 92.374C225.666 91.8607 225.755 91.3753 225.932 90.918C226.119 90.4607 226.371 90.0593 226.688 89.714C227.015 89.3687 227.397 89.0933 227.836 88.888C228.275 88.6827 228.755 88.58 229.278 88.58C229.801 88.58 230.281 88.6827 230.72 88.888C231.168 89.0933 231.551 89.3687 231.868 89.714C232.195 90.0593 232.447 90.4607 232.624 90.918C232.811 91.3753 232.904 91.8607 232.904 92.374C232.904 92.878 232.815 93.3587 232.638 93.816C232.461 94.2733 232.209 94.6747 231.882 95.02C231.565 95.3653 231.182 95.6407 230.734 95.846C230.295 96.042 229.81 96.14 229.278 96.14ZM226.632 92.388C226.632 92.7987 226.702 93.1813 226.842 93.536C226.982 93.8813 227.169 94.1893 227.402 94.46C227.645 94.7213 227.925 94.9267 228.242 95.076C228.569 95.2253 228.914 95.3 229.278 95.3C229.642 95.3 229.983 95.2253 230.3 95.076C230.627 94.9173 230.911 94.7073 231.154 94.446C231.397 94.1753 231.588 93.8627 231.728 93.508C231.868 93.1533 231.938 92.7707 231.938 92.36C231.938 91.9587 231.868 91.5807 231.728 91.226C231.588 90.862 231.397 90.5493 231.154 90.288C230.911 90.0173 230.627 89.8073 230.3 89.658C229.983 89.4993 229.642 89.42 229.278 89.42C228.914 89.42 228.573 89.4993 228.256 89.658C227.939 89.8073 227.659 90.0173 227.416 90.288C227.173 90.5587 226.982 90.876 226.842 91.24C226.702 91.5947 226.632 91.9773 226.632 92.388ZM241.789 96.14C241.173 96.14 240.627 95.986 240.151 95.678C239.684 95.3607 239.306 94.964 239.017 94.488V98.982H238.065V88.706H238.919V90.12C239.217 89.6627 239.605 89.294 240.081 89.014C240.557 88.7247 241.075 88.58 241.635 88.58C242.139 88.58 242.601 88.6873 243.021 88.902C243.441 89.1073 243.805 89.3873 244.113 89.742C244.421 90.0873 244.659 90.4887 244.827 90.946C245.004 91.4033 245.093 91.8747 245.093 92.36C245.093 92.8733 245.013 93.3587 244.855 93.816C244.696 94.2733 244.467 94.6747 244.169 95.02C243.879 95.3653 243.529 95.6407 243.119 95.846C242.717 96.042 242.274 96.14 241.789 96.14ZM241.523 95.3C241.915 95.3 242.269 95.216 242.587 95.048C242.913 94.88 243.189 94.6607 243.413 94.39C243.646 94.11 243.823 93.7973 243.945 93.452C244.066 93.0973 244.127 92.7333 244.127 92.36C244.127 91.968 244.057 91.5947 243.917 91.24C243.777 90.8853 243.585 90.5727 243.343 90.302C243.1 90.0313 242.811 89.8167 242.475 89.658C242.148 89.4993 241.793 89.42 241.411 89.42C241.168 89.42 240.911 89.4713 240.641 89.574C240.379 89.6673 240.132 89.798 239.899 89.966C239.675 90.1247 239.479 90.316 239.311 90.54C239.152 90.7547 239.054 90.9833 239.017 91.226V93.466C239.129 93.7273 239.269 93.97 239.437 94.194C239.614 94.418 239.81 94.614 240.025 94.782C240.249 94.9407 240.487 95.0667 240.739 95.16C240.991 95.2533 241.252 95.3 241.523 95.3ZM250.345 89.546C249.701 89.5647 249.141 89.742 248.665 90.078C248.189 90.414 247.853 90.876 247.657 91.464V96H246.705V88.706H247.601V90.456C247.872 89.896 248.236 89.4573 248.693 89.14C249.151 88.8227 249.641 88.664 250.163 88.664C250.238 88.664 250.299 88.6687 250.345 88.678V89.546ZM254.352 96.14C253.82 96.14 253.335 96.042 252.896 95.846C252.458 95.6407 252.075 95.3653 251.748 95.02C251.431 94.6747 251.184 94.2733 251.006 93.816C250.829 93.3587 250.74 92.878 250.74 92.374C250.74 91.8607 250.829 91.3753 251.006 90.918C251.193 90.4607 251.445 90.0593 251.762 89.714C252.089 89.3687 252.472 89.0933 252.91 88.888C253.349 88.6827 253.83 88.58 254.352 88.58C254.875 88.58 255.356 88.6827 255.794 88.888C256.242 89.0933 256.625 89.3687 256.942 89.714C257.269 90.0593 257.521 90.4607 257.698 90.918C257.885 91.3753 257.978 91.8607 257.978 92.374C257.978 92.878 257.89 93.3587 257.712 93.816C257.535 94.2733 257.283 94.6747 256.956 95.02C256.639 95.3653 256.256 95.6407 255.808 95.846C255.37 96.042 254.884 96.14 254.352 96.14ZM251.706 92.388C251.706 92.7987 251.776 93.1813 251.916 93.536C252.056 93.8813 252.243 94.1893 252.476 94.46C252.719 94.7213 252.999 94.9267 253.316 95.076C253.643 95.2253 253.988 95.3 254.352 95.3C254.716 95.3 255.057 95.2253 255.374 95.076C255.701 94.9173 255.986 94.7073 256.228 94.446C256.471 94.1753 256.662 93.8627 256.802 93.508C256.942 93.1533 257.012 92.7707 257.012 92.36C257.012 91.9587 256.942 91.5807 256.802 91.226C256.662 90.862 256.471 90.5493 256.228 90.288C255.986 90.0173 255.701 89.8073 255.374 89.658C255.057 89.4993 254.716 89.42 254.352 89.42C253.988 89.42 253.648 89.4993 253.33 89.658C253.013 89.8073 252.733 90.0173 252.49 90.288C252.248 90.5587 252.056 90.876 251.916 91.24C251.776 91.5947 251.706 91.9773 251.706 92.388ZM262.567 96.14C262.063 96.14 261.596 96.0373 261.167 95.832C260.737 95.6173 260.369 95.3373 260.061 94.992C259.753 94.6467 259.51 94.25 259.333 93.802C259.165 93.3447 259.081 92.8687 259.081 92.374C259.081 91.8607 259.165 91.3753 259.333 90.918C259.501 90.4513 259.729 90.0453 260.019 89.7C260.317 89.3547 260.667 89.084 261.069 88.888C261.479 88.6827 261.927 88.58 262.413 88.58C263.029 88.58 263.575 88.7433 264.051 89.07C264.527 89.3873 264.9 89.7747 265.171 90.232V85.78H266.123V94.768C266.123 95.0293 266.235 95.16 266.459 95.16V96C266.319 96.028 266.207 96.042 266.123 96.042C265.899 96.042 265.703 95.972 265.535 95.832C265.367 95.6827 265.283 95.5053 265.283 95.3V94.586C264.993 95.062 264.601 95.44 264.107 95.72C263.612 96 263.099 96.14 262.567 96.14ZM262.777 95.3C263.01 95.3 263.257 95.2533 263.519 95.16C263.789 95.0667 264.041 94.9407 264.275 94.782C264.508 94.614 264.704 94.4227 264.863 94.208C265.031 93.984 265.133 93.746 265.171 93.494V91.24C265.077 90.988 264.942 90.7547 264.765 90.54C264.587 90.316 264.382 90.12 264.149 89.952C263.925 89.784 263.682 89.6533 263.421 89.56C263.159 89.4667 262.903 89.42 262.651 89.42C262.259 89.42 261.904 89.504 261.587 89.672C261.269 89.84 260.994 90.064 260.761 90.344C260.537 90.6147 260.364 90.9273 260.243 91.282C260.121 91.6367 260.061 92.0007 260.061 92.374C260.061 92.766 260.131 93.1393 260.271 93.494C260.411 93.8487 260.602 94.1613 260.845 94.432C261.087 94.6933 261.372 94.9033 261.699 95.062C262.035 95.2207 262.394 95.3 262.777 95.3ZM270.561 96.14C269.768 96.14 269.175 95.8787 268.783 95.356C268.401 94.824 268.209 94.0353 268.209 92.99V88.706H269.161V92.822C269.161 94.474 269.726 95.3 270.855 95.3C271.135 95.3 271.411 95.2533 271.681 95.16C271.952 95.0667 272.199 94.9313 272.423 94.754C272.657 94.5767 272.862 94.3667 273.039 94.124C273.226 93.8813 273.375 93.606 273.487 93.298V88.706H274.439V94.768C274.439 95.0293 274.551 95.16 274.775 95.16V96C274.663 96.0187 274.57 96.028 274.495 96.028C274.43 96.028 274.383 96.028 274.355 96.028C274.131 96.0187 273.949 95.9393 273.809 95.79C273.669 95.6407 273.599 95.44 273.599 95.188V94.348C273.282 94.9173 272.848 95.3607 272.297 95.678C271.756 95.986 271.177 96.14 270.561 96.14ZM280.092 95.65C280.036 95.678 279.952 95.7153 279.84 95.762C279.737 95.8087 279.616 95.8553 279.476 95.902C279.336 95.9487 279.177 95.9907 279 96.028C278.823 96.0653 278.636 96.084 278.44 96.084C278.235 96.084 278.039 96.056 277.852 96C277.665 95.944 277.502 95.86 277.362 95.748C277.222 95.6267 277.11 95.4773 277.026 95.3C276.942 95.1227 276.9 94.9173 276.9 94.684V89.462H275.892V88.706H276.9V86.242H277.852V88.706H279.532V89.462H277.852V94.418C277.871 94.6887 277.964 94.8893 278.132 95.02C278.309 95.1413 278.51 95.202 278.734 95.202C279.005 95.202 279.243 95.16 279.448 95.076C279.653 94.9827 279.784 94.9173 279.84 94.88L280.092 95.65ZM284.212 96.14C283.68 96.14 283.194 96.042 282.756 95.846C282.317 95.6407 281.934 95.3653 281.608 95.02C281.29 94.6747 281.043 94.2733 280.866 93.816C280.688 93.3587 280.6 92.878 280.6 92.374C280.6 91.8607 280.688 91.3753 280.866 90.918C281.052 90.4607 281.304 90.0593 281.622 89.714C281.948 89.3687 282.331 89.0933 282.77 88.888C283.208 88.6827 283.689 88.58 284.212 88.58C284.734 88.58 285.215 88.6827 285.654 88.888C286.102 89.0933 286.484 89.3687 286.802 89.714C287.128 90.0593 287.38 90.4607 287.558 90.918C287.744 91.3753 287.838 91.8607 287.838 92.374C287.838 92.878 287.749 93.3587 287.572 93.816C287.394 94.2733 287.142 94.6747 286.816 95.02C286.498 95.3653 286.116 95.6407 285.668 95.846C285.229 96.042 284.744 96.14 284.212 96.14ZM281.566 92.388C281.566 92.7987 281.636 93.1813 281.776 93.536C281.916 93.8813 282.102 94.1893 282.336 94.46C282.578 94.7213 282.858 94.9267 283.176 95.076C283.502 95.2253 283.848 95.3 284.212 95.3C284.576 95.3 284.916 95.2253 285.234 95.076C285.56 94.9173 285.845 94.7073 286.088 94.446C286.33 94.1753 286.522 93.8627 286.662 93.508C286.802 93.1533 286.872 92.7707 286.872 92.36C286.872 91.9587 286.802 91.5807 286.662 91.226C286.522 90.862 286.33 90.5493 286.088 90.288C285.845 90.0173 285.56 89.8073 285.234 89.658C284.916 89.4993 284.576 89.42 284.212 89.42C283.848 89.42 283.507 89.4993 283.19 89.658C282.872 89.8073 282.592 90.0173 282.35 90.288C282.107 90.5587 281.916 90.876 281.776 91.24C281.636 91.5947 281.566 91.9773 281.566 92.388Z" fill="#6B6B6B"/>
<rect x="0.5" y="0.5" width="327" height="133" stroke="#C8C8C8" stroke-dasharray="6 6"/>
</svg>
