<svg width="198" height="62" viewBox="0 0 198 62" fill="none" xmlns="http://www.w3.org/2000/svg">
<g filter="url(#filter0_i_55_1110)">
<rect width="198" height="62" rx="15" fill="#1F1B1B"/>
<g clip-path="url(#clip0_55_1110)">
<path d="M52.5751 41.3587L50.0206 21.9584C49.3644 16.969 45.4037 13.2713 40.7399 13.2713H19.5067C14.8429 13.2713 10.8822 16.969 10.226 21.9584L7.67142 41.3587C7.15583 45.259 9.94473 48.7288 13.5773 48.7288C15.171 48.7288 16.6709 48.045 17.7958 46.8293L23.0924 41.1308H37.1541L42.4273 46.8293C43.5522 48.045 45.0755 48.7288 46.6458 48.7288C50.3018 48.7288 53.0907 45.259 52.5751 41.3587ZM27.7797 28.4674H23.0924V33.5327H20.7488V28.4674H16.0616V25.9347H20.7488V20.8693H23.0924V25.9347H27.7797V28.4674ZM37.1541 25.9347C35.8651 25.9347 34.8105 24.795 34.8105 23.402C34.8105 22.009 35.8651 20.8693 37.1541 20.8693C38.4431 20.8693 39.4977 22.009 39.4977 23.402C39.4977 24.795 38.4431 25.9347 37.1541 25.9347ZM41.8414 33.5327C40.5524 33.5327 39.4977 32.393 39.4977 31C39.4977 29.6071 40.5524 28.4674 41.8414 28.4674C43.1303 28.4674 44.185 29.6071 44.185 31C44.185 32.393 43.1303 33.5327 41.8414 33.5327Z" fill="white"/>
</g>
<path d="M140.267 38.6553C138.797 40.3057 137.084 41.131 135.13 41.131C133.919 41.131 132.777 40.8591 131.705 40.3154C130.65 39.7717 129.724 39.0242 128.929 38.0727C128.15 37.1213 127.528 36.0048 127.061 34.7233C126.611 33.4223 126.386 32.0243 126.386 30.5292C126.386 29.1117 126.611 27.7816 127.061 26.5389C127.528 25.2768 128.159 24.1797 128.955 23.2477C129.768 22.2963 130.719 21.5487 131.809 21.005C132.898 20.4419 134.083 20.1604 135.363 20.1604C137.093 20.1604 138.572 20.5681 139.8 21.3837C141.045 22.1992 141.979 23.2962 142.602 24.6749L139.929 26.8884C139.462 25.8593 138.805 25.0729 137.958 24.5292C137.127 23.9856 136.219 23.7137 135.233 23.7137C134.455 23.7137 133.737 23.8982 133.08 24.2671C132.44 24.636 131.887 25.1409 131.42 25.7816C130.97 26.4224 130.615 27.1603 130.356 27.9952C130.114 28.8302 129.993 29.7136 129.993 30.6457C129.993 31.6165 130.131 32.5291 130.408 33.3835C130.684 34.2184 131.065 34.9466 131.549 35.5679C132.034 36.1893 132.604 36.6844 133.262 37.0533C133.936 37.4029 134.663 37.5776 135.441 37.5776C137.223 37.5776 138.831 36.6359 140.267 34.7524V33.2961H136.557V30.3544H143.224V40.9853H140.267V38.6553Z" fill="#9B9595"/>
<path d="M152.243 41.2766C151.153 41.2766 150.168 41.0727 149.285 40.6649C148.403 40.2378 147.651 39.665 147.028 38.9465C146.406 38.2281 145.921 37.3931 145.575 36.4417C145.247 35.4903 145.082 34.4903 145.082 33.4417C145.082 32.3544 145.247 31.335 145.575 30.3835C145.904 29.4127 146.38 28.568 147.002 27.8496C147.625 27.1117 148.377 26.5292 149.259 26.102C150.159 25.6749 151.162 25.4613 152.269 25.4613C153.376 25.4613 154.362 25.6749 155.227 26.102C156.109 26.5292 156.853 27.102 157.458 27.8205C158.081 28.5389 158.548 29.3738 158.859 30.3253C159.188 31.2767 159.352 32.267 159.352 33.2961C159.352 33.5485 159.343 33.7912 159.326 34.0243C159.326 34.2573 159.309 34.4514 159.274 34.6068H148.766C148.818 35.2087 148.948 35.7427 149.156 36.2087C149.363 36.6747 149.631 37.0728 149.96 37.4028C150.289 37.7329 150.66 37.9854 151.076 38.1601C151.491 38.3349 151.923 38.4223 152.373 38.4223C153.065 38.4223 153.713 38.2378 154.319 37.8689C154.941 37.4805 155.365 36.9757 155.59 36.3543L158.574 37.2863C158.072 38.4514 157.268 39.4125 156.161 40.1698C155.071 40.9077 153.765 41.2766 152.243 41.2766ZM155.772 32.0728C155.685 30.9272 155.305 30.0146 154.63 29.335C153.973 28.636 153.168 28.2865 152.217 28.2865C151.75 28.2865 151.309 28.3836 150.894 28.5777C150.496 28.7525 150.142 29.0049 149.83 29.335C149.519 29.6651 149.259 30.0631 149.052 30.5292C148.862 30.9952 148.749 31.5097 148.715 32.0728H155.772Z" fill="#9B9595"/>
<path d="M167.775 41.2766C166.685 41.2766 165.699 41.0727 164.817 40.6649C163.935 40.2378 163.182 39.665 162.56 38.9465C161.937 38.2281 161.453 37.3931 161.107 36.4417C160.778 35.4903 160.614 34.4903 160.614 33.4417C160.614 32.3544 160.778 31.335 161.107 30.3835C161.435 29.4127 161.911 28.568 162.534 27.8496C163.156 27.1117 163.909 26.5292 164.791 26.102C165.69 25.6749 166.693 25.4613 167.8 25.4613C168.907 25.4613 169.893 25.6749 170.758 26.102C171.64 26.5292 172.384 27.102 172.989 27.8205C173.612 28.5389 174.079 29.3738 174.39 30.3253C174.719 31.2767 174.883 32.267 174.883 33.2961C174.883 33.5485 174.875 33.7912 174.857 34.0243C174.857 34.2573 174.84 34.4514 174.806 34.6068H164.298C164.35 35.2087 164.48 35.7427 164.687 36.2087C164.895 36.6747 165.163 37.0728 165.491 37.4028C165.82 37.7329 166.192 37.9854 166.607 38.1601C167.022 38.3349 167.455 38.4223 167.904 38.4223C168.596 38.4223 169.245 38.2378 169.85 37.8689C170.473 37.4805 170.897 36.9757 171.121 36.3543L174.105 37.2863C173.603 38.4514 172.799 39.4125 171.692 40.1698C170.603 40.9077 169.297 41.2766 167.775 41.2766ZM171.303 32.0728C171.217 30.9272 170.836 30.0146 170.161 29.335C169.504 28.636 168.7 28.2865 167.749 28.2865C167.282 28.2865 166.841 28.3836 166.425 28.5777C166.028 28.7525 165.673 29.0049 165.362 29.335C165.05 29.6651 164.791 30.0631 164.583 30.5292C164.393 30.9952 164.281 31.5097 164.246 32.0728H171.303Z" fill="#9B9595"/>
<path d="M186.29 40.9853L182.346 34.3738L180.478 36.4417V40.9853H177.001V19.7235H180.478V32.6262L185.926 25.7525H189.636L184.577 32.2185L190 40.9853H186.29Z" fill="#9B9595"/>
<path d="M66.2588 20.306H69.4241L76.4292 40.9853H72.745L71.0327 35.8301H64.5984L62.9119 40.9853H59.2278L66.2588 20.306ZM70.3841 33.0049L67.8415 24.8787L65.1951 33.0049H70.3841Z" fill="white"/>
<path d="M78.0864 19.7235H81.563V36.0922C81.563 36.6553 81.6841 37.0922 81.9263 37.4028C82.1684 37.7135 82.5144 37.8689 82.9641 37.8689C83.1716 37.8689 83.3965 37.83 83.6386 37.7524C83.8981 37.6747 84.1402 37.5776 84.3651 37.4611L84.8321 40.4319C84.3651 40.6844 83.8202 40.8785 83.1976 41.0145C82.5749 41.1504 82.0128 41.2183 81.5111 41.2183C80.4215 41.2183 79.5739 40.8979 78.9686 40.2572C78.3805 39.597 78.0864 38.665 78.0864 37.4611V19.7235Z" fill="white"/>
<path d="M90.498 41.2766C89.097 41.2766 88.0332 40.7717 87.3068 39.762C86.5803 38.7523 86.2171 37.2572 86.2171 35.2767V25.7234H89.6937V34.432C89.6937 36.7815 90.4461 37.9562 91.9509 37.9562C92.6255 37.9562 93.2741 37.7329 93.8968 37.2863C94.5367 36.8203 95.0556 36.1213 95.4535 35.1893V25.7234H98.9301V36.4999C98.9301 36.9077 98.9906 37.199 99.1117 37.3737C99.25 37.5485 99.4663 37.6456 99.7603 37.665V40.9853C99.4144 41.063 99.1203 41.1115 98.8782 41.131C98.6533 41.1504 98.4458 41.1601 98.2555 41.1601C97.6328 41.1601 97.1226 41.0047 96.7248 40.6941C96.3442 40.364 96.1194 39.9174 96.0502 39.3543L95.9724 38.131C95.367 39.1795 94.5886 39.9659 93.6373 40.4902C92.686 41.0145 91.6396 41.2766 90.498 41.2766Z" fill="white"/>
<path d="M110.48 29.102C109.425 29.1214 108.482 29.3544 107.652 29.801C106.822 30.2282 106.225 30.8787 105.862 31.7524V40.9853H102.385V25.7234H105.576V28.9855C105.818 28.4612 106.104 27.9952 106.432 27.5875C106.761 27.1603 107.116 26.7913 107.496 26.4807C107.877 26.17 108.257 25.937 108.638 25.7816C109.036 25.6069 109.416 25.5195 109.779 25.5195C109.97 25.5195 110.108 25.5195 110.194 25.5195C110.298 25.5195 110.393 25.5292 110.48 25.5486V29.102Z" fill="white"/>
<path d="M115.951 41.2766C115.294 41.2766 114.68 41.1601 114.109 40.9271C113.538 40.6747 113.045 40.3348 112.63 39.9077C112.215 39.4611 111.886 38.9465 111.644 38.364C111.419 37.7815 111.307 37.1407 111.307 36.4417C111.307 35.7233 111.445 35.0631 111.722 34.4611C112.016 33.8398 112.414 33.3155 112.916 32.8883C113.434 32.4612 114.048 32.1311 114.758 31.8981C115.467 31.6456 116.245 31.5194 117.093 31.5194C117.698 31.5194 118.286 31.5777 118.857 31.6942C119.445 31.8107 119.964 31.9757 120.414 32.1893V31.3156C120.414 30.3059 120.154 29.5292 119.635 28.9855C119.134 28.4418 118.381 28.17 117.378 28.17C116.652 28.17 115.942 28.3156 115.251 28.6069C114.559 28.8981 113.85 29.3253 113.123 29.8884L112.059 27.4127C113.806 26.1117 115.692 25.4613 117.715 25.4613C119.67 25.4613 121.183 26.0049 122.256 27.0923C123.345 28.1603 123.89 29.7136 123.89 31.7524V36.4999C123.89 36.9077 123.951 37.199 124.072 37.3737C124.21 37.5485 124.426 37.6456 124.72 37.665V40.9853C124.132 41.1212 123.622 41.1892 123.19 41.1892C122.532 41.1892 122.022 41.0242 121.659 40.6941C121.313 40.364 121.097 39.9271 121.01 39.3834L120.932 38.5388C120.327 39.4319 119.592 40.1116 118.727 40.5776C117.862 41.0436 116.937 41.2766 115.951 41.2766ZM116.937 38.4223C117.525 38.4223 118.079 38.3057 118.597 38.0727C119.134 37.8397 119.549 37.5291 119.843 37.1407C120.223 36.8106 120.414 36.4417 120.414 36.0339V34.2864C119.998 34.1116 119.549 33.9757 119.064 33.8786C118.58 33.7621 118.113 33.7039 117.663 33.7039C116.764 33.7039 116.029 33.9369 115.458 34.4029C114.887 34.8495 114.602 35.4223 114.602 36.1213C114.602 36.7815 114.827 37.3349 115.277 37.7815C115.726 38.2087 116.28 38.4223 116.937 38.4223Z" fill="white"/>
</g>
<defs>
<filter id="filter0_i_55_1110" x="0" y="0" width="201" height="66" filterUnits="userSpaceOnUse" color-interpolation-filters="sRGB">
<feFlood flood-opacity="0" result="BackgroundImageFix"/>
<feBlend mode="normal" in="SourceGraphic" in2="BackgroundImageFix" result="shape"/>
<feColorMatrix in="SourceAlpha" type="matrix" values="0 0 0 0 0 0 0 0 0 0 0 0 0 0 0 0 0 0 127 0" result="hardAlpha"/>
<feOffset dx="3" dy="4"/>
<feGaussianBlur stdDeviation="7.5"/>
<feComposite in2="hardAlpha" operator="arithmetic" k2="-1" k3="1"/>
<feColorMatrix type="matrix" values="0 0 0 0 1 0 0 0 0 1 0 0 0 0 1 0 0 0 0.26 0"/>
<feBlend mode="normal" in2="shape" result="effect1_innerShadow_55_1110"/>
</filter>
<clipPath id="clip0_55_1110">
<rect width="56.2468" height="60.7843" fill="white" transform="translate(2 0.607849)"/>
</clipPath>
</defs>
</svg>
